<?xml version="1.0" encoding="utf-8"?><!DOCTYPE svg  PUBLIC '-//W3C//DTD SVG 1.1//EN'  'http://www.w3.org/Graphics/SVG/1.1/DTD/svg11.dtd'><svg enable_background="new 0 0 1000 519" height="519px" pretty_print="False" style="stroke-linejoin: round; stroke:#000; fill: none;" version="1.1" viewBox="0 0 1000 519" width="1000px" xmlns="http://www.w3.org/2000/svg" xmlns:xlink="http://www.w3.org/1999/xlink"><defs><style type="text/css"><![CDATA[path { fill-rule: evenodd; }]]></style></defs><metadata><views><view h="519.260351005" padding="0" w="1000"><proj flip="auto" id="robinson" lon0="-122.2706624"/><bbox h="0.23" w="0.44" x="-1686.52" y="-636.01"/></view></views></metadata><g class="" id="mylayer"><path d="M412.377199,195.649564L399.187664,185.416925L386.556294,182.094138L381.145693,181.332423L0.964766,186.361296 "/><path d="M412.377199,195.649564L399.187664,185.416925L386.556294,182.094138L381.145693,181.332423L0.964766,186.361296 "/><path d="M412.377199,195.649564L399.187664,185.416925L386.556294,182.094138L381.145693,181.332423L0.964766,186.361296 "/><path d="M412.377199,195.649564L399.187664,185.416925L386.556294,182.094138L381.145693,181.332423L0.964766,186.361296 "/><path d="M412.377199,195.649564L399.187664,185.416925L386.556294,182.094138L381.145693,181.332423L0.964766,186.361296 "/><path d="M412.377199,195.649564L399.187664,185.416925L386.556294,182.094138L381.145693,181.332423L0.964766,186.361296 "/><path d="M412.377199,195.649564L399.187664,185.416925L386.556294,182.094138L381.145693,181.332423L0.964766,186.361296 "/><path d="M412.377199,195.649564L399.187664,185.416925L386.556294,182.094138L381.145693,181.332423L0.964766,186.361296 "/><path d="M412.377199,195.649564L399.187664,185.416925L386.556294,182.094138L381.145693,181.332423L0.964766,186.361296 "/><path d="M86.279740,163.424379L93.577627,162.355649L314.457484,129.621512L323.180438,128.323497L391.767812,118.343562L398.550140,117.364223 "/><path d="M72.935591,198.750838L73.635686,198.649794L80.809908,197.569400L301.867085,164.528085L309.297434,163.451583L377.780699,153.833022L384.654394,152.818702L459.423962,141.781665L463.172271,141.257017 "/><path d="M313.434639,325.395103L248.224595,335.383100L214.269407,259.043441 M214.269407,259.043441L213.714455,257.795771L213.353830,259.187081L214.269407,259.043441 Z M214.269407,259.043441L224.129589,257.496523L224.555507,256.120759 "/><path d="M209.207705,377.659298L222.109651,375.844347L248.521619,372.226105L257.967354,370.943592L275.198174,368.600092L284.866612,367.298148L460.169466,341.309837L463.289468,341.574111 "/><path d="M401.001377,179.692405L377.292618,182.968556L377.078947,175.673974L352.311640,173.878505L351.859715,175.366956L331.276760,180.745592L323.242066,181.316878L380.016945,30.098687L377.430771,30.432901 "/><path d="M260.310571,304.070581L282.431256,301.175239L429.515066,279.605949 "/><path d="M315.821499,226.615726L333.441733,196.045968L369.536435,200.849445L380.346149,199.395965L383.265939,189.485884 "/><path d="M330.949706,259.424148L422.546496,246.163963L404.010183,299.830557L402.868727,315.488734L402.806611,318.850446L388.858048,347.613558 "/><path d="M330.949706,259.424148L422.546496,246.163963L404.010183,299.830557L402.868727,315.488734L402.806611,318.850446L388.858048,347.613558 "/><path d="M330.949706,259.424148L422.546496,246.163963L404.010183,299.830557L402.868727,315.488734L402.806611,318.850446L388.858048,347.613558 "/><path d="M330.949706,259.424148L422.546496,246.163963L404.010183,299.830557L402.868727,315.488734 "/><path d="M330.949706,259.424148L422.546496,246.163963 "/><path d="M330.949706,259.424148L422.546496,246.163963 "/><path d="M330.949706,259.424148L422.546496,246.163963 "/><path d="M355.332516,223.833119L363.186609,222.807130L380.906482,220.141114L381.865020,219.997320 "/><path d="M292.221188,408.847773L294.501394,401.545188 "/><path d="M390.457584,201.090396L392.334775,194.775145L394.132183,194.522535L394.525766,193.197305 "/><path d="M380.526812,226.580750L380.004640,227.641716L379.441568,229.056338 "/><path d="M465.335729,74.417243L481.159362,82.391814 "/><path d="M476.888624,82.473425L472.540650,83.071907L472.947026,81.711721L462.441480,83.153518 "/><path d="M333.385274,392.905685L433.635863,377.550479 "/><path d="M502.282658,23.045206L498.279237,34.190874L481.159362,82.391814L459.423962,141.781665 "/><path d="M502.282658,23.045206L498.279237,34.190874L481.159362,82.391814L459.423962,141.781665 "/><path d="M502.282658,23.045206L498.279237,34.190874L481.159362,82.391814L459.423962,141.781665 "/><path d="M502.282658,23.045206L498.279237,34.190874L481.159362,82.391814L459.423962,141.781665 "/><path d="M415.658593,217.482871L413.844064,223.708757 "/><path d="M463.172271,141.257017L494.634531,54.508057L496.770468,48.698145L502.107836,34.113150L504.705908,26.834265L506.607168,21.514039L512.314943,5.537838 "/><path d="M463.172271,141.257017L494.634531,54.508057L496.770468,48.698145L502.107836,34.113150L504.705908,26.834265L506.607168,21.514039L512.314943,5.537838 "/><path d="M463.172271,141.257017L494.634531,54.508057L496.770468,48.698145L502.107836,34.113150L504.705908,26.834265L506.607168,21.514039L512.314943,5.537838 "/><path d="M463.172271,141.257017L494.634531,54.508057L496.770468,48.698145L502.107836,34.113150L504.705908,26.834265L506.607168,21.514039L512.314943,5.537838 "/><path d="M491.139641,73.185305L499.627143,72.454691 "/><path d="M473.717039,126.333727L474.158634,125.505952L472.339017,125.634199 "/><path d="M466.676068,157.155796L460.722771,157.777602 "/><path d="M422.546496,246.163963L404.010183,299.830557L402.868727,315.488734L402.806611,318.850446L388.858048,347.613558 "/><path d="M422.546496,246.163963L404.010183,299.830557L402.868727,315.488734L402.806611,318.850446L388.858048,347.613558 "/><path d="M422.546496,246.163963L404.010183,299.830557L402.868727,315.488734L402.806611,318.850446L388.858048,347.613558 "/><path d="M422.546496,246.163963L404.010183,299.830557L402.868727,315.488734 "/><path d="M402.868727,315.488734L402.806611,318.850446L388.858048,347.613558 "/><path d="M402.868727,315.488734L402.806611,318.850446L388.858048,347.613558 "/><path d="M402.868727,315.488734L402.806611,318.850446L388.858048,347.613558 "/><path d="M402.868727,315.488734L402.806611,318.850446L388.858048,347.613558 "/><path d="M343.880050,455.201286L344.259241,451.847282 "/><path d="M330.134359,492.899928L345.228738,490.731279L740.810256,432.162460 "/><path d="M330.134359,492.899928L345.228738,490.731279L740.810256,432.162460 "/><path d="M525.480442,67.744570L536.755123,66.493202L534.769710,73.212508L553.999100,70.581524 "/><path d="M556.945802,63.726202L525.480442,67.744570 "/><path d="M427.724061,283.554485L429.515066,279.605949 "/><path d="M427.724061,283.554485L429.515066,279.605949 "/><path d="M427.724061,283.554485L429.515066,279.605949 "/><path d="M427.724061,283.554485L429.515066,279.605949 "/><path d="M427.724061,283.554485L429.515066,279.605949 "/><path d="M427.724061,283.554485L429.515066,279.605949 "/><path d="M427.724061,283.554485L429.515066,279.605949 "/><path d="M427.724061,283.554485L429.515066,279.605949 "/><path d="M427.724061,283.554485L429.515066,279.605949 "/><path d="M427.724061,283.554485L429.515066,279.605949 "/><path d="M427.724061,283.554485L429.515066,279.605949 "/><path d="M427.724061,283.554485L429.515066,279.605949 "/><path d="M427.724061,283.554485L429.515066,279.605949 "/><path d="M427.724061,283.554485L429.515066,279.605949 "/><path d="M413.271854,317.463011L425.329355,315.644189 "/><path d="M404.551584,351.301742L404.060364,352.599797L403.136753,359.560329L401.288219,365.397698L390.945220,366.890076 "/><path d="M361.018456,448.726467L358.566991,452.550729 "/><path d="M422.828617,333.245590L426.670488,338.208501 "/><path d="M423.007820,332.732588L422.828617,333.245590 "/><path d="M434.635168,324.462373L450.665166,322.262683L450.699605,325.161920 "/><path d="M474.927760,238.515660L499.144022,235.056827 "/><path d="M474.927760,238.515660L499.144022,235.056827 "/><path d="M474.927760,238.515660L499.144022,235.056827 "/><path d="M474.927760,238.515660L499.144022,235.056827 "/><path d="M474.927760,238.515660L499.144022,235.056827 "/><path d="M474.927760,238.515660L499.144022,235.056827 "/><path d="M583.884342,0.000000L536.383821,130.880664L530.681977,148.365022L525.368048,166.506207L499.144022,235.056827 "/><path d="M583.884342,0.000000L536.383821,130.880664L530.681977,148.365022L525.368048,166.506207L499.144022,235.056827 "/><path d="M583.884342,0.000000L536.383821,130.880664L530.681977,148.365022L525.368048,166.506207 "/><path d="M583.884342,0.000000L536.383821,130.880664L530.681977,148.365022L525.368048,166.506207 "/><path d="M583.884342,0.000000L536.383821,130.880664L530.681977,148.365022L525.368048,166.506207 "/><path d="M448.319757,326.261765L450.699605,325.161920 "/><path d="M525.368048,166.506207L499.144022,235.056827 "/><path d="M525.368048,166.506207L499.144022,235.056827 "/><path d="M525.368048,166.506207L499.144022,235.056827 "/><path d="M525.368048,166.506207L499.144022,235.056827 "/><path d="M432.378021,391.871898L433.635863,377.550479 "/><path d="M432.378021,391.871898L433.635863,377.550479L463.289468,341.574111L465.979182,336.836608L468.017468,331.912561 "/><path d="M432.378021,391.871898L433.635863,377.550479L463.289468,341.574111L465.979182,336.836608L468.017468,331.912561 "/><path d="M432.378021,391.871898L433.635863,377.550479L463.289468,341.574111L465.979182,336.836608L468.017468,331.912561 "/><path d="M433.635863,377.550479L463.289468,341.574111L465.979182,336.836608L468.017468,331.912561 "/><path d="M429.006625,393.791787L427.893207,398.459372 "/><path d="M510.450497,252.930074L501.851262,244.496725L500.751114,242.359242 "/><path d="M468.261612,320.062995L462.468807,336.836608L460.169466,341.309837L458.313496,344.209081 "/><path d="M468.261612,320.062995L469.164121,321.644750 "/><path d="M443.810721,408.999343L431.798667,402.672250 "/><path d="M653.613748,377.911915L500.245903,400.048917L443.810721,408.999343L431.798667,402.672250 "/><path d="M799.745648,356.338508L756.782425,362.821016L653.613748,377.911915L500.245903,400.048917L443.810721,408.999343L431.798667,402.672250 "/><path d="M476.544509,434.292227L419.863300,442.127287 "/><path d="M522.034277,243.175372L523.065063,246.859616L523.558680,251.429948L522.915001,262.661472L521.394513,266.609998L514.105354,280.301607L510.454734,284.778687L503.090197,292.679652L493.570446,299.659557L483.495901,303.736354 "/><path d="M851.329167,238.453479L841.318844,242.666262L833.496585,245.036926L827.857862,245.561581L815.376246,244.508384L809.619041,245.301196L800.713353,247.667974L793.071132,250.827566L781.360364,258.199951L773.625924,262.152361L766.886214,266.893701L763.691171,272.155815L758.878136,279.792494L755.828866,285.322776L751.219344,289.535587L741.960917,295.065877L734.469373,298.489762L729.371647,299.014421L724.837134,297.700830L717.335051,296.383354L711.432345,296.033581L705.942485,296.826399L699.134121,299.014421L692.749113,302.966854L686.369015,306.915402L678.129279,311.392499L672.617228,314.023571L665.601584,316.398145L659.401564,321.135635L651.973373,325.612740L641.956203,327.454883L636.050072,327.979545L629.991522,328.243818L625.034415,326.308402L619.449833,323.148777L612.874212,321.570909L605.339550,319.728767L599.963922,315.512052L597.169194,313.934185L592.516583,312.880978L587.002228,313.498911L580.522522,313.498911L574.345881,314.023571L570.528780,311.128225L568.268275,307.179675L568.165071,300.860444L568.245084,295.330150L566.231139,293.223742L560.946572,290.588791L554.163830,290.064132L549.574575,290.064132L543.517807,290.324518L537.486910,291.117335L526.931842,292.959470L517.756962,295.330150L510.234547,298.225489L501.938163,304.020059L495.438114,308.232881L487.975885,312.181432L480.150415,314.552118 "/><path d="M577.534266,104.543448L574.293535,112.075019 "/><path d="M653.613748,377.911915L500.245903,400.048917L443.810721,408.999343 "/><path d="M653.613748,377.911915L500.245903,400.048917L443.810721,408.999343 "/><path d="M653.613748,377.911915L500.245903,400.048917L443.810721,408.999343 "/><path d="M653.613748,377.911915L500.245903,400.048917L443.810721,408.999343 "/><path d="M799.745648,356.338508L756.782425,362.821016L653.613748,377.911915L500.245903,400.048917L443.810721,408.999343 "/><path d="M799.745648,356.338508L756.782425,362.821016L653.613748,377.911915L500.245903,400.048917L443.810721,408.999343 "/><path d="M799.745648,356.338508L756.782425,362.821016L653.613748,377.911915L500.245903,400.048917L443.810721,408.999343 "/><path d="M486.382115,320.591542L529.918766,308.365017L548.809155,302.826944L557.593649,300.720535L559.934645,301.509467L560.750764,303.732468L561.904148,313.020888L569.927671,322.045046L575.121100,322.973890L579.877843,322.958345L584.989520,321.279430L590.089503,318.745514 "/><path d="M431.067097,444.556313L457.375178,440.681532L566.717899,424.261342 "/><path d="M431.067097,444.556313L457.375178,440.681532L566.717899,424.261342 "/><path d="M431.067097,444.556313L457.375178,440.681532L566.717899,424.261342 "/><path d="M431.067097,444.556313L457.375178,440.681532L566.717899,424.261342L745.053440,397.930820 "/><path d="M431.067097,444.556313L457.375178,440.681532L566.717899,424.261342L745.053440,397.930820 "/><path d="M431.067097,444.556313L457.375178,440.681532L566.717899,424.261342L745.053440,397.930820 "/><path d="M431.067097,444.556313L457.375178,440.681532L566.717899,424.261342L745.053440,397.930820 "/><path d="M552.837022,185.109907L554.597453,179.925583 "/><path d="M577.749561,175.907152L579.224503,175.623452 "/><path d="M638.226891,59.696177L632.395071,74.976862 "/><path d="M634.829602,73.853738L632.700473,78.019789L631.294004,81.688404 "/><path d="M682.400953,78.886422L679.763721,84.435980L640.995882,60.733801L642.984154,57.356665L646.035160,49.335487L647.510363,47.089248L649.741196,45.437602L652.449402,44.827464L649.761202,52.922476L657.808215,51.873194L658.153352,50.703439L654.283780,51.231966L656.373970,44.267848 "/><path d="M562.609358,254.779971L557.037509,258.728493L552.845844,263.205560L548.662699,270.049415L545.195256,275.315417L540.739874,282.163170L537.486910,291.117335 "/><path d="M643.281795,80.744046L642.827334,80.775136L643.114765,80.044522L640.939966,80.199972L640.657303,80.961676L638.682949,81.070491L637.698001,83.518825L638.056337,83.491622 "/><path d="M593.375312,185.498537L583.958435,211.229787 "/><path d="M583.958435,211.229787L590.745133,205.886105L593.210031,200.445269L594.494398,197.017545L594.338488,194.386515L593.826473,192.540519L593.965177,188.067383L593.375312,185.498537 "/><path d="M645.683390,77.821591L646.181958,77.339697L654.112303,76.970504L654.235086,77.289176 "/><path d="M570.390948,296.861376L570.440938,290.433336L566.832183,260.761050 "/><path d="M655.039518,77.658369L656.329528,77.040456L657.881127,77.246427L654.734065,82.512288L653.535923,83.662616L652.189495,84.404890 "/><path d="M578.712883,255.899237L581.958174,257.974543L578.033695,285.905730L568.493329,288.256976 "/><path d="M609.481090,199.648576L612.878352,189.038959 "/><path d="M609.937026,198.366094L628.801781,195.956583L626.954718,189.349863 "/><path d="M603.510637,214.121206L606.299032,213.382806L611.166016,212.784313L613.761048,212.687155L616.134508,214.000730L619.311039,212.947538L621.735781,210.576886L624.341917,208.999042 "/><path d="M570.390948,296.861376L574.367128,296.340604L629.410458,280.659151L647.258574,275.754575L655.339920,273.811400L718.510795,257.749135 "/><path d="M666.953229,84.774083L667.956369,83.880246L670.733154,84.117307L671.727821,84.198918 "/><path d="M719.919340,139.838526L712.727480,143.786984L701.944582,150.894992L691.249065,157.214090L684.956107,160.373642L678.661387,163.537081L674.798469,166.692749L670.399426,172.222944L667.803440,178.542061L665.236466,185.393607L663.601296,191.973119L660.704106,197.763716L655.620178,205.400316L650.863370,211.719462L646.587452,216.985422L638.681769,224.886313L634.462453,228.834818L627.604491,233.836520L622.571894,237.788917L615.770513,241.473158L609.174579,244.108092L603.956991,244.897018L595.770086,245.685943 "/><path d="M574.367128,296.340604L578.423115,301.684353L584.187618,304.218263L594.075884,305.046059L596.647008,305.438582 "/><path d="M639.381238,157.046980L646.691641,167.641004 "/><path d="M615.078273,211.544578L616.840445,212.687155L619.638139,211.630077L622.153380,208.470503L628.235934,206.364121L629.477692,199.660234 "/><path d="M679.712294,84.362141L678.603641,83.685934L678.395389,82.286885 "/><path d="M650.637929,148.839149L653.607212,148.839149 "/><path d="M654.333444,151.994810L653.888187,153.572641L652.482168,154.890092L652.032005,156.471810L652.636272,157.524993 "/><path d="M684.535605,84.012379L689.442988,79.795803L747.623722,59.342529L778.784779,54.663507L791.361521,52.739823 "/><path d="M690.003211,76.675149L689.442988,79.795803L688.754279,83.581005 "/><path d="M692.079447,85.112186L692.349935,84.855694L690.806307,83.363376L694.095182,80.627459L694.452970,80.996652L698.706438,77.479602L699.366439,78.132490L700.241675,77.409649L701.251791,78.427845L700.389898,79.135141L700.955199,79.698646L696.706363,83.281764 "/><path d="M583.325133,330.268622L593.992100,328.679093L605.614011,327.598679 "/><path d="M590.089503,318.745514L592.469928,322.783458L593.395921,324.174781L593.992100,328.679093L593.388472,331.473400L581.640708,370.290677 "/><path d="M590.089503,318.745514L595.311309,314.458845 "/><path d="M694.117402,98.216623L699.340953,99.938234L703.796956,100.023732 "/><path d="M629.410458,280.659151L630.182204,242.743989 "/><path d="M601.377398,311.722840L600.441601,314.458845L598.729687,320.750883L596.392365,322.332638L593.395921,324.174781 "/><path d="M606.320088,308.030789L603.664986,306.588947 "/><path d="M642.349501,223.083059L644.957293,223.914732L688.341968,203.091846L707.477803,199.737961L715.110428,196.197534L718.956278,194.161109L731.001857,190.558504L742.496986,195.346432L744.216266,199.294921L744.374036,204.300489L741.794186,220.486996 "/><path d="M598.729687,320.750883L606.418701,325.227989L618.651268,329.514664 "/><path d="M706.811871,83.969630L708.337292,83.907450 "/><path d="M710.025075,82.232478L712.364129,82.512288 "/><path d="M613.125023,306.009878L618.983910,290.297314L616.485743,291.179517L613.125023,306.009878 Z "/><path d="M610.954221,311.489658L621.809161,311.524635 "/><path d="M606.418701,325.227989L605.614011,327.598679L602.815067,337.341838 "/><path d="M629.410458,280.659151L628.804639,286.585842 "/><path d="M733.593359,81.851626L719.701873,83.934654 "/><path d="M566.717899,424.261342L745.053440,397.930820 "/><path d="M648.552988,268.386058L652.136965,271.802157L655.339920,273.811400L658.921722,277.787137L660.385210,285.878525L661.639815,287.689568L666.866445,286.554751L667.252190,290.246791L667.375102,296.002490 "/><path d="M648.552988,268.386058L647.258574,275.754575 "/><path d="M735.739001,78.952488L737.737076,78.680451L737.929095,78.035334L739.478735,72.823884L740.741125,72.641231L743.750106,62.521469L746.863355,62.086210L751.631308,61.421664L747.074455,76.748988 "/><path d="M628.672674,316.351508L627.811851,320.031904L626.830797,323.984348 "/><path d="M626.830797,323.984348L637.807353,323.397505L638.458255,323.273141L651.656719,320.762543L655.276490,319.682130L656.049091,319.448948L660.236330,313.191888L667.331572,307.611062L673.793246,306.048742 "/><path d="M617.706527,345.538226L620.381334,347.769013L620.300062,349.980369 "/><path d="M623.165586,335.041099L621.492881,338.729277L619.927972,342.110432L617.706527,345.538226 "/><path d="M743.144709,75.295533L742.470632,76.663491L741.508147,77.530123L738.768221,79.076847L738.082632,80.005660 "/><path d="M747.623722,59.342529L746.863355,62.086210L743.144709,75.295533L743.730969,77.164816L743.715722,77.219223 "/><path d="M620.300062,349.980369L623.685977,351.433880 "/><path d="M611.756472,375.817142L615.123841,372.851816L616.161465,371.507121 "/><path d="M638.458255,323.273141L638.730865,326.417220 "/><path d="M638.730865,326.417220L648.062387,323.479119L655.276490,319.682130 "/><path d="M727.549531,148.846921L723.612853,146.215909 "/><path d="M703.374896,209.955075L680.452450,247.322090L678.419880,257.885157L681.629015,260.185871L674.967775,299.360307L673.793246,306.048742 "/><path d="M706.674465,206.772184L711.701790,200.709538L715.292755,197.549969L719.189902,194.915052L722.486298,193.597595L737.702400,193.372189L739.374771,194.421491L740.425205,212.687155L734.725789,213.005833L731.325943,213.705370L728.797043,214.669177L726.273808,215.259897L723.602666,215.691278L719.145561,215.691278L715.580894,214.937333 "/><path d="M772.477105,79.084620L772.041757,79.142914L772.625859,77.203678L771.186566,77.401877L772.094098,74.382267L768.410488,74.903023 "/><path d="M653.896772,447.525555L653.223226,447.630489L647.209215,468.197579L643.402379,468.663953L640.727683,477.101452L645.368264,476.405776L639.878840,495.122988L631.466755,496.366658L626.900185,512.223473L593.069480,517.260351 M593.069480,517.260351L597.199673,502.934795L603.300860,501.959291L607.423517,488.080709L602.566400,488.733635L612.115309,453.926531L606.062941,454.933121 "/><path d="M662.940645,349.848232L662.899319,349.599503L663.128885,349.343001L663.350724,349.276933L663.519171,349.370206L663.501872,349.595617L662.940645,349.848232 Z "/><path d="M738.806869,185.584036L747.639153,187.290123L751.058970,188.079042L755.077775,187.554391 "/><path d="M799.745648,356.338508L756.782425,362.821016L653.613748,377.911915 "/><path d="M799.745648,356.338508L756.782425,362.821016L653.613748,377.911915 "/><path d="M711.167681,311.944363L712.315300,302.908558L713.040906,293.659015L715.144487,277.647228L716.578648,270.185437L717.798886,262.917970L718.510795,257.749135 "/><path d="M736.081968,259.828328L730.936276,261.270161L728.688131,261.316797L718.510795,257.749135 "/><path d="M698.699141,315.224460L695.888818,325.297944L693.030256,334.395959 "/><path d="M698.699141,315.224460L706.022807,313.627162L711.167681,311.944363L723.979468,307.754857L735.240463,302.504376 "/><path d="M741.794186,220.486996L740.839940,227.264743L736.081968,259.828328 "/><path d="M741.794186,220.486996L769.381846,209.768532 "/><path d="M726.642591,272.373451L727.644046,264.208237L728.688131,261.316797 "/><path d="M717.335504,334.846779L705.115008,337.073677L705.343707,335.868898L697.512966,337.543930L691.347233,364.157937 "/><path d="M757.492824,232.651190L756.455070,239.883649 "/><path d="M723.979468,307.754857L729.371405,311.831658L730.215798,312.640023L731.442581,313.798162 "/><path d="M763.263826,257.119548L766.079975,237.443033L769.381846,209.768532 "/><path d="M756.455070,239.883649L766.079975,237.443033 "/><path d="M821.086440,171.158099L828.116731,149.938966L804.361986,144.871256 "/><path d="M735.240463,302.504376L730.215798,312.640023 "/><path d="M674.409041,437.945478L681.938860,436.635749L685.595681,435.730209L692.111968,434.595369L694.594851,432.671583 "/><path d="M756.745199,293.317015L738.833666,300.615603 "/><path d="M813.475161,291.296108L806.891667,298.668535L767.971956,325.212443L734.817214,331.485059L734.390537,328.853980L735.809160,318.582287L734.486820,316.740146 "/><path d="M824.485736,176.159761L823.610522,172.735934L821.086440,171.158099L818.114003,171.158099L802.974752,175.374729L795.700949,182.478882 "/><path d="M795.101306,299.399171L759.001220,305.889401L753.862659,306.219742L749.631205,305.430810L741.495312,302.535467 "/><path d="M765.375350,275.121100L764.413825,275.583575L756.961711,278.393407L757.014556,274.705260L754.045229,274.705260 "/><path d="M763.263826,257.119548L802.768685,238.406843 "/><path d="M760.743774,297.005172L756.745199,293.317015 "/><path d="M759.001220,305.889401L760.743774,297.005172 "/><path d="M810.289291,317.365852L807.368949,311.306998L795.101306,299.399171L791.900959,295.532240L786.029748,286.103934L779.170892,286.364320L782.877966,264.701802L792.880971,255.747670 "/><path d="M821.692940,244.978631L817.732131,245.507172L792.880971,255.747670 "/><path d="M888.585539,224.136252L856.034871,142.624987L849.297073,131.448059 "/><path d="M888.585539,224.136252L856.034871,142.624987L849.297073,131.448059 "/><path d="M888.585539,224.136252L856.034871,142.624987L849.297073,131.448059 "/><path d="M854.678005,257.589795L858.058759,249.428484L860.788349,239.949716L860.814744,236.867856L856.218136,232.418010L820.069316,237.718963L802.768685,238.406843 "/><path d="M861.478582,118.545647L860.799892,117.663465L883.222177,117.659579L873.510676,119.202426L865.937393,122.140444L864.288702,126.038371L865.964665,131.094409L860.523172,131.863891L859.027657,130.029570 "/><path d="M767.971956,325.212443L765.325368,331.485059L763.923231,335.173236L760.599720,352.024611L756.782425,362.821016 "/><path d="M794.062381,275.758461L794.251844,267.601016 "/><path d="M807.922862,271.157024L794.251844,267.601016 "/><path d="M748.724417,371.600394L747.918494,374.771699L745.837282,382.933153L745.053440,397.930820 "/><path d="M773.555397,316.868396L784.434700,314.859141 "/><path d="M887.793650,88.466018L885.169424,80.584710L883.991341,80.747932L884.272339,79.698646L885.615886,79.496562L882.617089,77.273631 "/><path d="M751.026001,370.298449L748.281846,376.349580L746.843394,377.142406L747.488043,383.461705L752.979976,385.043473L757.276679,386.881745L758.410265,385.568139L769.793048,377.142406L774.741888,376.349580L776.047953,371.083503L770.347163,370.558838L762.573254,366.462572L762.062921,367.476922 "/><path d="M816.105155,287.876113L814.355609,284.992436L807.922862,271.157024L794.062381,275.758461 "/><path d="M837.349271,184.449236L837.756823,182.226272 "/><path d="M824.496981,263.741875L823.304906,248.616240L821.692940,244.978631L820.069316,237.718963 "/><path d="M847.392555,189.435362L855.133991,187.624345L857.485196,188.203404L858.897902,190.671207L862.531725,223.782597 "/><path d="M824.496981,263.741875L829.156540,259.696192L834.190909,258.118338L854.678005,257.589795 "/><path d="M813.475161,291.296108L810.289291,317.365852 "/><path d="M841.912584,283.877052L816.105155,287.876113L813.475161,291.296108 "/><path d="M897.142031,108.538522L917.299480,119.975793L939.262953,133.332902L951.724354,143.666510L961.262965,123.671633 "/><path d="M810.289291,317.365852L801.333788,350.804284L799.745648,356.338508 "/><path d="M855.547657,228.889226L861.753153,226.518568L872.909333,225.729645L879.479932,227.311379L887.495808,230.470961 "/><path d="M801.333788,350.804284L829.187206,331.057557L831.965783,325.527240 "/><path d="M801.333788,350.804284L824.604781,347.119986L827.770532,341.325382L829.106847,334.217185L829.187206,331.057557 "/><path d="M861.753153,226.518568L862.531725,223.782597 "/><path d="M863.629711,249.164213L858.058759,249.428484 "/><path d="M901.295365,195.365864L903.601942,193.255600L905.365741,191.149222L907.372424,188.514308L908.836332,185.883281L909.760990,183.248369L910.019421,178.510971L908.572387,174.558607L905.447123,171.927585L900.794639,170.874400L895.426454,171.399049 "/><path d="M872.083436,246.004623L869.859168,244.951426L863.629711,249.164213 "/><path d="M864.355183,266.019273L854.403551,273.119630 "/><path d="M841.483941,315.255551L834.520867,327.633657 "/><path d="M879.879261,259.171536L875.413568,261.277934L871.452656,260.489006L871.688693,257.589795L873.089176,253.905545L872.962495,251.799150L872.270301,249.164213L872.684647,247.057820L872.083436,246.004623 "/><path d="M865.577012,289.555019L856.496609,284.456119L854.710393,286.057298L853.529764,287.592409L852.759188,289.104202L852.861028,293.297583 "/><path d="M842.749048,314.373345L845.611210,305.683423 "/><path d="M871.452656,260.489006L864.355183,266.019273 "/><path d="M887.495808,230.470961L887.642703,237.408056L889.652284,241.791838 "/><path d="M883.371266,265.758888L885.517986,258.646880L879.879261,259.171536 "/><path d="M900.278320,278.117476L871.945778,280.235539 "/><path d="M893.920678,231.784539L896.148593,235.208394L907.239038,257.519841L907.407316,259.000537 "/><path d="M893.920678,231.784539L896.148593,235.208394L907.239038,257.519841L907.407316,259.000537 "/><path d="M893.920678,231.784539L896.148593,235.208394L907.239038,257.519841L907.407316,259.000537 "/><path d="M964.622586,242.246538L959.142044,239.405630L953.071297,234.932465L932.062495,215.182171L922.099686,213.340056L898.655230,224.660906 "/><path d="M898.729875,265.226459L883.371266,265.758888 "/><path d="M943.296022,151.963720L946.860391,148.543791L949.891076,145.745669L951.724354,143.666510 "/><path d="M927.493751,216.468542L941.835381,253.380889 "/><path d="M903.835589,270.815025L900.278320,278.117476L895.116852,291.280562 "/><path d="M903.835589,270.815025L900.278320,278.117476L895.116852,291.280562 "/><path d="M903.835589,270.815025L900.278320,278.117476L895.116852,291.280562 "/><path d="M965.860891,139.177859L964.765508,141.315311L963.394503,143.685941 "/><path d="M889.206178,343.175302L892.967864,332.647087L894.941271,324.730533L896.188431,317.000533L897.811057,298.781239L908.064085,270.473026 "/><path d="M991.229539,94.264304L988.864540,95.317478L987.340767,99.265912L984.916004,101.636528 "/><path d="M872.951649,388.972635L886.546231,350.143598L889.206178,343.175302 "/><path d="M872.951649,388.972635L886.546231,350.143598L889.206178,343.175302 "/><path d="M861.172931,433.926902L857.945553,441.120699L856.332582,445.267532L855.646758,447.688786L855.314847,448.302844L854.962850,448.683716L854.406886,449.118998L853.983963,449.309433L853.651293,449.293888L853.120493,449.084020L852.811927,448.703148L852.848745,448.302844L854.687737,443.262128L856.707381,438.419624L858.793186,433.736467 "/><path d="M977.183120,190.010535L979.798932,186.046506L982.273731,182.393383L986.102064,178.044615L988.344631,174.348747L999.035234,175.778904 "/><path d="M973.779459,202.368993L974.940330,207.576651L975.008969,213.250671L973.270136,217.292441 "/><path d="M993.321363,176.136443L993.868277,181.033178L994.779155,184.919479 "/><path d="M947.957814,305.450241L950.267257,308.174585L952.485390,309.837951L954.436306,310.467543L957.617590,310.700725L960.146613,310.506406L963.326628,309.348268L967.417843,307.179675L970.710131,304.913923L973.312826,302.566558L974.610808,301.043103L975.867027,299.022194L977.658124,295.065877L978.072114,292.578606L977.907440,288.350248L976.626619,283.725484L971.817064,274.293307L969.002589,270.865548L965.546900,268.490989L962.675364,267.519403L961.228368,267.360063 "/></g></svg>