<?xml version="1.0" encoding="UTF-8" standalone="no"?>
<svg
   xmlns:dc="http://purl.org/dc/elements/1.1/"
   xmlns:cc="http://creativecommons.org/ns#"
   xmlns:rdf="http://www.w3.org/1999/02/22-rdf-syntax-ns#"
   xmlns:svg="http://www.w3.org/2000/svg"
   xmlns="http://www.w3.org/2000/svg"
   xmlns:xlink="http://www.w3.org/1999/xlink"
   xmlns:sodipodi="http://sodipodi.sourceforge.net/DTD/sodipodi-0.dtd"
   xmlns:inkscape="http://www.inkscape.org/namespaces/inkscape"
   width="730"
   height="481"
   viewBox="0 0 730 481"
   id="svg2"
   version="1.1"
   inkscape:version="0.48.2 r9819"
   sodipodi:docname="2.svg"><metadata
   id="metadata543">
  <rdf:RDF>
    <cc:Work
       rdf:about="">
      <dc:format>image/svg+xml</dc:format>
      <dc:type
         rdf:resource="http://purl.org/dc/dcmitype/StillImage" />
    </cc:Work>
  </rdf:RDF>
</metadata>
<defs
   id="defs541" />
<sodipodi:namedview
   pagecolor="#ffffff"
   bordercolor="#666666"
   borderopacity="1"
   objecttolerance="10"
   gridtolerance="10"
   guidetolerance="10"
   inkscape:pageopacity="0"
   inkscape:pageshadow="2"
   inkscape:window-width="1280"
   inkscape:window-height="1002"
   id="namedview539"
   showgrid="false"
   inkscape:zoom="1.3173496"
   inkscape:cx="304.14653"
   inkscape:cy="198.85306"
   inkscape:window-x="0"
   inkscape:window-y="0"
   inkscape:window-maximized="1"
   inkscape:current-layer="1st_floor" />

  sodipodi:docname=&quot;Bancroft Library&quot;&gt;
<title
   id="title4">Bancroft Library</title>
<style
   type="text/css"
   id="style6">
          .area {
            fill: #0000ff;
            fill-opacity: 0.3;
            stroke-width: 2.0;
            stroke: #000000;
          }
        </style>
<g
   id="2nd_floor"
   inkscape:groupmode="layer"
   class="floor"
   inkscape:label="2nd_floor">
  <image
     x="0"
     y="0"
     xlink:href="/Users/gabe/Documents/LoCal/LoCalProjects/data/floor_plans/bancroftfloor2.png"
     width="583"
     height="481"
     id="image42" />
  <path
     id="2nd_floor__#doe_vav_b-2-01"
     class="area area_hvac"
     d="M2146.67436716 -2067.16001924C2146.67436716 -2067.16001924 2149.21688445 -1978.94681176 2149.21688445 -1978.94681176C2149.21688445 -1978.94681176 2367.95471032 -1976.08711834 2367.95471032 -1976.08711834C2367.95471032 -1976.08711834 2367.09408526 -2065.01687279 2367.09408526 -2065.01687279C2367.09408526 -2065.01687279 2146.67436716 -2067.16001924 2146.67436716 -2067.16001924C2146.67436716 -2067.16001924 2146.67436716 -2067.16001924 2146.67436716 -2067.16001924">
    <title
       id="title45">#doe_vav_b-2-01</title>
    <desc
       id="desc47">Type=hvac</desc>
  </path>
  <path
     id="2nd_floor__#doe_vav_b-2-01n"
     class="area area_hvac"
     d="M2146.67436716 -2067.16001924C2146.67436716 -2067.16001924 2149.21688445 -1978.94681176 2149.21688445 -1978.94681176C2149.21688445 -1978.94681176 2367.95471032 -1976.08711834 2367.95471032 -1976.08711834C2367.95471032 -1976.08711834 2367.09408526 -2065.01687279 2367.09408526 -2065.01687279C2367.09408526 -2065.01687279 2146.67436716 -2067.16001924 2146.67436716 -2067.16001924C2146.67436716 -2067.16001924 2146.67436716 -2067.16001924 2146.67436716 -2067.16001924">
    <title
       id="title50">#doe_vav_b-2-01n</title>
    <desc
       id="desc52">Type=hvac</desc>
  </path>
  <path
     id="2nd_floor__#doe_vav_c-2-1"
     class="area area_hvac"
     d="M2146.67436716 -2067.16001924C2146.67436716 -2067.16001924 2149.21688445 -1978.94681176 2149.21688445 -1978.94681176C2149.21688445 -1978.94681176 2367.95471032 -1976.08711834 2367.95471032 -1976.08711834C2367.95471032 -1976.08711834 2367.09408526 -2065.01687279 2367.09408526 -2065.01687279C2367.09408526 -2065.01687279 2146.67436716 -2067.16001924 2146.67436716 -2067.16001924C2146.67436716 -2067.16001924 2146.67436716 -2067.16001924 2146.67436716 -2067.16001924">
    <title
       id="title55">#doe_vav_c-2-1</title>
    <desc
       id="desc57">Type=hvac</desc>
  </path>
  <path
     id="2nd_floor__#doe_vav_c-2-10"
     class="area area_hvac"
     d="M2146.67436716 -2067.16001924C2146.67436716 -2067.16001924 2149.21688445 -1978.94681176 2149.21688445 -1978.94681176C2149.21688445 -1978.94681176 2367.95471032 -1976.08711834 2367.95471032 -1976.08711834C2367.95471032 -1976.08711834 2367.09408526 -2065.01687279 2367.09408526 -2065.01687279C2367.09408526 -2065.01687279 2146.67436716 -2067.16001924 2146.67436716 -2067.16001924C2146.67436716 -2067.16001924 2146.67436716 -2067.16001924 2146.67436716 -2067.16001924">
    <title
       id="title60">#doe_vav_c-2-10</title>
    <desc
       id="desc62">Type=hvac</desc>
  </path>
  <path
     id="2nd_floor__#doe_vav_c-2-11"
     class="area area_hvac"
     d="M2146.67436716 -2067.16001924C2146.67436716 -2067.16001924 2149.21688445 -1978.94681176 2149.21688445 -1978.94681176C2149.21688445 -1978.94681176 2367.95471032 -1976.08711834 2367.95471032 -1976.08711834C2367.95471032 -1976.08711834 2367.09408526 -2065.01687279 2367.09408526 -2065.01687279C2367.09408526 -2065.01687279 2146.67436716 -2067.16001924 2146.67436716 -2067.16001924C2146.67436716 -2067.16001924 2146.67436716 -2067.16001924 2146.67436716 -2067.16001924">
    <title
       id="title65">#doe_vav_c-2-11</title>
    <desc
       id="desc67">Type=hvac</desc>
  </path>
  <path
     id="2nd_floor__#doe_vav_c-2-12"
     class="area area_hvac"
     d="M2146.67436716 -2067.16001924C2146.67436716 -2067.16001924 2149.21688445 -1978.94681176 2149.21688445 -1978.94681176C2149.21688445 -1978.94681176 2367.95471032 -1976.08711834 2367.95471032 -1976.08711834C2367.95471032 -1976.08711834 2367.09408526 -2065.01687279 2367.09408526 -2065.01687279C2367.09408526 -2065.01687279 2146.67436716 -2067.16001924 2146.67436716 -2067.16001924C2146.67436716 -2067.16001924 2146.67436716 -2067.16001924 2146.67436716 -2067.16001924">
    <title
       id="title70">#doe_vav_c-2-12</title>
    <desc
       id="desc72">Type=hvac</desc>
  </path>
  <path
     id="2nd_floor__#doe_vav_c-2-13"
     class="area area_hvac"
     d="M2146.67436716 -2067.16001924C2146.67436716 -2067.16001924 2149.21688445 -1978.94681176 2149.21688445 -1978.94681176C2149.21688445 -1978.94681176 2367.95471032 -1976.08711834 2367.95471032 -1976.08711834C2367.95471032 -1976.08711834 2367.09408526 -2065.01687279 2367.09408526 -2065.01687279C2367.09408526 -2065.01687279 2146.67436716 -2067.16001924 2146.67436716 -2067.16001924C2146.67436716 -2067.16001924 2146.67436716 -2067.16001924 2146.67436716 -2067.16001924">
    <title
       id="title75">#doe_vav_c-2-13</title>
    <desc
       id="desc77">Type=hvac</desc>
  </path>
  <path
     id="2nd_floor__#doe_vav_c-2-14"
     class="area area_hvac"
     d="M2146.67436716 -2067.16001924C2146.67436716 -2067.16001924 2149.21688445 -1978.94681176 2149.21688445 -1978.94681176C2149.21688445 -1978.94681176 2367.95471032 -1976.08711834 2367.95471032 -1976.08711834C2367.95471032 -1976.08711834 2367.09408526 -2065.01687279 2367.09408526 -2065.01687279C2367.09408526 -2065.01687279 2146.67436716 -2067.16001924 2146.67436716 -2067.16001924C2146.67436716 -2067.16001924 2146.67436716 -2067.16001924 2146.67436716 -2067.16001924">
    <title
       id="title80">#doe_vav_c-2-14</title>
    <desc
       id="desc82">Type=hvac</desc>
  </path>
  <path
     id="2nd_floor__#doe_vav_c-2-15"
     class="area area_hvac"
     d="M2146.67436716 -2067.16001924C2146.67436716 -2067.16001924 2149.21688445 -1978.94681176 2149.21688445 -1978.94681176C2149.21688445 -1978.94681176 2367.95471032 -1976.08711834 2367.95471032 -1976.08711834C2367.95471032 -1976.08711834 2367.09408526 -2065.01687279 2367.09408526 -2065.01687279C2367.09408526 -2065.01687279 2146.67436716 -2067.16001924 2146.67436716 -2067.16001924C2146.67436716 -2067.16001924 2146.67436716 -2067.16001924 2146.67436716 -2067.16001924">
    <title
       id="title85">#doe_vav_c-2-15</title>
    <desc
       id="desc87">Type=hvac</desc>
  </path>
  <path
     id="2nd_floor__#doe_vav_c-2-16"
     class="area area_hvac"
     d="M2146.67436716 -2067.16001924C2146.67436716 -2067.16001924 2149.21688445 -1978.94681176 2149.21688445 -1978.94681176C2149.21688445 -1978.94681176 2367.95471032 -1976.08711834 2367.95471032 -1976.08711834C2367.95471032 -1976.08711834 2367.09408526 -2065.01687279 2367.09408526 -2065.01687279C2367.09408526 -2065.01687279 2146.67436716 -2067.16001924 2146.67436716 -2067.16001924C2146.67436716 -2067.16001924 2146.67436716 -2067.16001924 2146.67436716 -2067.16001924">
    <title
       id="title90">#doe_vav_c-2-16</title>
    <desc
       id="desc92">Type=hvac</desc>
  </path>
  <path
     id="2nd_floor__#doe_vav_c-2-17"
     class="area area_hvac"
     d="M2146.67436716 -2067.16001924C2146.67436716 -2067.16001924 2149.21688445 -1978.94681176 2149.21688445 -1978.94681176C2149.21688445 -1978.94681176 2367.95471032 -1976.08711834 2367.95471032 -1976.08711834C2367.95471032 -1976.08711834 2367.09408526 -2065.01687279 2367.09408526 -2065.01687279C2367.09408526 -2065.01687279 2146.67436716 -2067.16001924 2146.67436716 -2067.16001924C2146.67436716 -2067.16001924 2146.67436716 -2067.16001924 2146.67436716 -2067.16001924">
    <title
       id="title95">#doe_vav_c-2-17</title>
    <desc
       id="desc97">Type=hvac</desc>
  </path>
  <path
     id="2nd_floor__#doe_vav_c-2-18"
     class="area area_hvac"
     d="M2146.67436716 -2067.16001924C2146.67436716 -2067.16001924 2149.21688445 -1978.94681176 2149.21688445 -1978.94681176C2149.21688445 -1978.94681176 2367.95471032 -1976.08711834 2367.95471032 -1976.08711834C2367.95471032 -1976.08711834 2367.09408526 -2065.01687279 2367.09408526 -2065.01687279C2367.09408526 -2065.01687279 2146.67436716 -2067.16001924 2146.67436716 -2067.16001924C2146.67436716 -2067.16001924 2146.67436716 -2067.16001924 2146.67436716 -2067.16001924">
    <title
       id="title100">#doe_vav_c-2-18</title>
    <desc
       id="desc102">Type=hvac</desc>
  </path>
  <path
     id="2nd_floor__#doe_vav_c-2-19"
     class="area area_hvac"
     d="M2146.67436716 -2067.16001924C2146.67436716 -2067.16001924 2149.21688445 -1978.94681176 2149.21688445 -1978.94681176C2149.21688445 -1978.94681176 2367.95471032 -1976.08711834 2367.95471032 -1976.08711834C2367.95471032 -1976.08711834 2367.09408526 -2065.01687279 2367.09408526 -2065.01687279C2367.09408526 -2065.01687279 2146.67436716 -2067.16001924 2146.67436716 -2067.16001924C2146.67436716 -2067.16001924 2146.67436716 -2067.16001924 2146.67436716 -2067.16001924">
    <title
       id="title105">#doe_vav_c-2-19</title>
    <desc
       id="desc107">Type=hvac</desc>
  </path>
  <path
     id="2nd_floor__#doe_vav_c-2-2"
     class="area area_hvac"
     d="M2146.67436716 -2067.16001924C2146.67436716 -2067.16001924 2149.21688445 -1978.94681176 2149.21688445 -1978.94681176C2149.21688445 -1978.94681176 2367.95471032 -1976.08711834 2367.95471032 -1976.08711834C2367.95471032 -1976.08711834 2367.09408526 -2065.01687279 2367.09408526 -2065.01687279C2367.09408526 -2065.01687279 2146.67436716 -2067.16001924 2146.67436716 -2067.16001924C2146.67436716 -2067.16001924 2146.67436716 -2067.16001924 2146.67436716 -2067.16001924">
    <title
       id="title110">#doe_vav_c-2-2</title>
    <desc
       id="desc112">Type=hvac</desc>
  </path>
  <path
     id="2nd_floor__#doe_vav_c-2-3"
     class="area area_hvac"
     d="M2146.67436716 -2067.16001924C2146.67436716 -2067.16001924 2149.21688445 -1978.94681176 2149.21688445 -1978.94681176C2149.21688445 -1978.94681176 2367.95471032 -1976.08711834 2367.95471032 -1976.08711834C2367.95471032 -1976.08711834 2367.09408526 -2065.01687279 2367.09408526 -2065.01687279C2367.09408526 -2065.01687279 2146.67436716 -2067.16001924 2146.67436716 -2067.16001924C2146.67436716 -2067.16001924 2146.67436716 -2067.16001924 2146.67436716 -2067.16001924">
    <title
       id="title115">#doe_vav_c-2-3</title>
    <desc
       id="desc117">Type=hvac</desc>
  </path>
  <path
     id="2nd_floor__#doe_vav_c-2-4"
     class="area area_hvac"
     d="M2146.67436716 -2067.16001924C2146.67436716 -2067.16001924 2149.21688445 -1978.94681176 2149.21688445 -1978.94681176C2149.21688445 -1978.94681176 2367.95471032 -1976.08711834 2367.95471032 -1976.08711834C2367.95471032 -1976.08711834 2367.09408526 -2065.01687279 2367.09408526 -2065.01687279C2367.09408526 -2065.01687279 2146.67436716 -2067.16001924 2146.67436716 -2067.16001924C2146.67436716 -2067.16001924 2146.67436716 -2067.16001924 2146.67436716 -2067.16001924">
    <title
       id="title120">#doe_vav_c-2-4</title>
    <desc
       id="desc122">Type=hvac</desc>
  </path>
  <path
     id="2nd_floor__#doe_vav_c-2-5"
     class="area area_hvac"
     d="M2146.67436716 -2067.16001924C2146.67436716 -2067.16001924 2149.21688445 -1978.94681176 2149.21688445 -1978.94681176C2149.21688445 -1978.94681176 2367.95471032 -1976.08711834 2367.95471032 -1976.08711834C2367.95471032 -1976.08711834 2367.09408526 -2065.01687279 2367.09408526 -2065.01687279C2367.09408526 -2065.01687279 2146.67436716 -2067.16001924 2146.67436716 -2067.16001924C2146.67436716 -2067.16001924 2146.67436716 -2067.16001924 2146.67436716 -2067.16001924">
    <title
       id="title125">#doe_vav_c-2-5</title>
    <desc
       id="desc127">Type=hvac</desc>
  </path>
  <path
     id="2nd_floor__#doe_vav_c-2-6"
     class="area area_hvac"
     d="M2146.67436716 -2067.16001924C2146.67436716 -2067.16001924 2149.21688445 -1978.94681176 2149.21688445 -1978.94681176C2149.21688445 -1978.94681176 2367.95471032 -1976.08711834 2367.95471032 -1976.08711834C2367.95471032 -1976.08711834 2367.09408526 -2065.01687279 2367.09408526 -2065.01687279C2367.09408526 -2065.01687279 2146.67436716 -2067.16001924 2146.67436716 -2067.16001924C2146.67436716 -2067.16001924 2146.67436716 -2067.16001924 2146.67436716 -2067.16001924">
    <title
       id="title130">#doe_vav_c-2-6</title>
    <desc
       id="desc132">Type=hvac</desc>
  </path>
  <path
     id="2nd_floor__#doe_vav_c-2-7"
     class="area area_hvac"
     d="M2146.67436716 -2067.16001924C2146.67436716 -2067.16001924 2149.21688445 -1978.94681176 2149.21688445 -1978.94681176C2149.21688445 -1978.94681176 2367.95471032 -1976.08711834 2367.95471032 -1976.08711834C2367.95471032 -1976.08711834 2367.09408526 -2065.01687279 2367.09408526 -2065.01687279C2367.09408526 -2065.01687279 2146.67436716 -2067.16001924 2146.67436716 -2067.16001924C2146.67436716 -2067.16001924 2146.67436716 -2067.16001924 2146.67436716 -2067.16001924">
    <title
       id="title135">#doe_vav_c-2-7</title>
    <desc
       id="desc137">Type=hvac</desc>
  </path>
  <path
     id="2nd_floor__#doe_vav_c-2-8"
     class="area area_hvac"
     d="M2146.67436716 -2067.16001924C2146.67436716 -2067.16001924 2149.21688445 -1978.94681176 2149.21688445 -1978.94681176C2149.21688445 -1978.94681176 2367.95471032 -1976.08711834 2367.95471032 -1976.08711834C2367.95471032 -1976.08711834 2367.09408526 -2065.01687279 2367.09408526 -2065.01687279C2367.09408526 -2065.01687279 2146.67436716 -2067.16001924 2146.67436716 -2067.16001924C2146.67436716 -2067.16001924 2146.67436716 -2067.16001924 2146.67436716 -2067.16001924">
    <title
       id="title140">#doe_vav_c-2-8</title>
    <desc
       id="desc142">Type=hvac</desc>
  </path>
  <path
     id="2nd_floor__#doe_vav_c-2-9"
     class="area area_hvac"
     d="M2146.67436716 -2067.16001924C2146.67436716 -2067.16001924 2149.21688445 -1978.94681176 2149.21688445 -1978.94681176C2149.21688445 -1978.94681176 2367.95471032 -1976.08711834 2367.95471032 -1976.08711834C2367.95471032 -1976.08711834 2367.09408526 -2065.01687279 2367.09408526 -2065.01687279C2367.09408526 -2065.01687279 2146.67436716 -2067.16001924 2146.67436716 -2067.16001924C2146.67436716 -2067.16001924 2146.67436716 -2067.16001924 2146.67436716 -2067.16001924">
    <title
       id="title145">#doe_vav_c-2-9</title>
    <desc
       id="desc147">Type=hvac</desc>
  </path>
</g>
<g
   id="3rd_floor"
   inkscape:groupmode="layer"
   class="floor"
   inkscape:label="3rd_floor">
  <image
     x="0"
     y="0"
     xlink:href="/Users/gabe/Documents/LoCal/LoCalProjects/data/floor_plans/bancroftfloor3.png"
     width="580"
     height="397"
     id="image150" />
  <path
     id="3rd_floor__#doe_vav_b-3-01"
     class="area area_hvac"
     d="M2057.32074192 -1653.13167921C2057.32074192 -1653.13167921 2062.33883737 -1582.20453081 2062.33883737 -1582.20453081C2062.33883737 -1582.20453081 2278.34652795 -1579.54510812 2278.34652795 -1579.54510812C2278.34652795 -1579.54510812 2274.96833299 -1651.0455866 2274.96833299 -1651.0455866C2274.96833299 -1651.0455866 2057.32074192 -1653.13167921 2057.32074192 -1653.13167921C2057.32074192 -1653.13167921 2057.32074192 -1653.13167921 2057.32074192 -1653.13167921">
    <title
       id="title153">#doe_vav_b-3-01</title>
    <desc
       id="desc155">Type=hvac</desc>
  </path>
  <path
     id="3rd_floor__#doe_vav_b-3-01n"
     class="area area_hvac"
     d="M2057.32074192 -1653.13167921C2057.32074192 -1653.13167921 2062.33883737 -1582.20453081 2062.33883737 -1582.20453081C2062.33883737 -1582.20453081 2278.34652795 -1579.54510812 2278.34652795 -1579.54510812C2278.34652795 -1579.54510812 2274.96833299 -1651.0455866 2274.96833299 -1651.0455866C2274.96833299 -1651.0455866 2057.32074192 -1653.13167921 2057.32074192 -1653.13167921C2057.32074192 -1653.13167921 2057.32074192 -1653.13167921 2057.32074192 -1653.13167921">
    <title
       id="title158">#doe_vav_b-3-01n</title>
    <desc
       id="desc160">Type=hvac</desc>
  </path>
  <path
     id="3rd_floor__#doe_vav_b-3-02"
     class="area area_hvac"
     d="M2057.32074192 -1653.13167921C2057.32074192 -1653.13167921 2062.33883737 -1582.20453081 2062.33883737 -1582.20453081C2062.33883737 -1582.20453081 2278.34652795 -1579.54510812 2278.34652795 -1579.54510812C2278.34652795 -1579.54510812 2274.96833299 -1651.0455866 2274.96833299 -1651.0455866C2274.96833299 -1651.0455866 2057.32074192 -1653.13167921 2057.32074192 -1653.13167921C2057.32074192 -1653.13167921 2057.32074192 -1653.13167921 2057.32074192 -1653.13167921">
    <title
       id="title163">#doe_vav_b-3-02</title>
    <desc
       id="desc165">Type=hvac</desc>
  </path>
  <path
     id="3rd_floor__#doe_vav_b-3-03"
     class="area area_hvac"
     d="M2057.32074192 -1653.13167921C2057.32074192 -1653.13167921 2062.33883737 -1582.20453081 2062.33883737 -1582.20453081C2062.33883737 -1582.20453081 2278.34652795 -1579.54510812 2278.34652795 -1579.54510812C2278.34652795 -1579.54510812 2274.96833299 -1651.0455866 2274.96833299 -1651.0455866C2274.96833299 -1651.0455866 2057.32074192 -1653.13167921 2057.32074192 -1653.13167921C2057.32074192 -1653.13167921 2057.32074192 -1653.13167921 2057.32074192 -1653.13167921">
    <title
       id="title168">#doe_vav_b-3-03</title>
    <desc
       id="desc170">Type=hvac</desc>
  </path>
  <path
     id="3rd_floor__#doe_vav_b-3-04"
     class="area area_hvac"
     d="M2057.32074192 -1653.13167921C2057.32074192 -1653.13167921 2062.33883737 -1582.20453081 2062.33883737 -1582.20453081C2062.33883737 -1582.20453081 2278.34652795 -1579.54510812 2278.34652795 -1579.54510812C2278.34652795 -1579.54510812 2274.96833299 -1651.0455866 2274.96833299 -1651.0455866C2274.96833299 -1651.0455866 2057.32074192 -1653.13167921 2057.32074192 -1653.13167921C2057.32074192 -1653.13167921 2057.32074192 -1653.13167921 2057.32074192 -1653.13167921">
    <title
       id="title173">#doe_vav_b-3-04</title>
    <desc
       id="desc175">Type=hvac</desc>
  </path>
  <path
     id="3rd_floor__#doe_vav_b-3-05"
     class="area area_hvac"
     d="M2057.32074192 -1653.13167921C2057.32074192 -1653.13167921 2062.33883737 -1582.20453081 2062.33883737 -1582.20453081C2062.33883737 -1582.20453081 2278.34652795 -1579.54510812 2278.34652795 -1579.54510812C2278.34652795 -1579.54510812 2274.96833299 -1651.0455866 2274.96833299 -1651.0455866C2274.96833299 -1651.0455866 2057.32074192 -1653.13167921 2057.32074192 -1653.13167921C2057.32074192 -1653.13167921 2057.32074192 -1653.13167921 2057.32074192 -1653.13167921">
    <title
       id="title178">#doe_vav_b-3-05</title>
    <desc
       id="desc180">Type=hvac</desc>
  </path>
  <path
     id="3rd_floor__#doe_vav_b-3-06"
     class="area area_hvac"
     d="M2057.32074192 -1653.13167921C2057.32074192 -1653.13167921 2062.33883737 -1582.20453081 2062.33883737 -1582.20453081C2062.33883737 -1582.20453081 2278.34652795 -1579.54510812 2278.34652795 -1579.54510812C2278.34652795 -1579.54510812 2274.96833299 -1651.0455866 2274.96833299 -1651.0455866C2274.96833299 -1651.0455866 2057.32074192 -1653.13167921 2057.32074192 -1653.13167921C2057.32074192 -1653.13167921 2057.32074192 -1653.13167921 2057.32074192 -1653.13167921">
    <title
       id="title183">#doe_vav_b-3-06</title>
    <desc
       id="desc185">Type=hvac</desc>
  </path>
  <path
     id="3rd_floor__#doe_vav_b-3-07"
     class="area area_hvac"
     d="M2057.32074192 -1653.13167921C2057.32074192 -1653.13167921 2062.33883737 -1582.20453081 2062.33883737 -1582.20453081C2062.33883737 -1582.20453081 2278.34652795 -1579.54510812 2278.34652795 -1579.54510812C2278.34652795 -1579.54510812 2274.96833299 -1651.0455866 2274.96833299 -1651.0455866C2274.96833299 -1651.0455866 2057.32074192 -1653.13167921 2057.32074192 -1653.13167921C2057.32074192 -1653.13167921 2057.32074192 -1653.13167921 2057.32074192 -1653.13167921">
    <title
       id="title188">#doe_vav_b-3-07</title>
    <desc
       id="desc190">Type=hvac</desc>
  </path>
  <path
     id="3rd_floor__#doe_vav_b-3-08"
     class="area area_hvac"
     d="M2057.32074192 -1653.13167921C2057.32074192 -1653.13167921 2062.33883737 -1582.20453081 2062.33883737 -1582.20453081C2062.33883737 -1582.20453081 2278.34652795 -1579.54510812 2278.34652795 -1579.54510812C2278.34652795 -1579.54510812 2274.96833299 -1651.0455866 2274.96833299 -1651.0455866C2274.96833299 -1651.0455866 2057.32074192 -1653.13167921 2057.32074192 -1653.13167921C2057.32074192 -1653.13167921 2057.32074192 -1653.13167921 2057.32074192 -1653.13167921">
    <title
       id="title193">#doe_vav_b-3-08</title>
    <desc
       id="desc195">Type=hvac</desc>
  </path>
  <path
     id="3rd_floor__#doe_vav_b-3-09"
     class="area area_hvac"
     d="M2057.32074192 -1653.13167921C2057.32074192 -1653.13167921 2062.33883737 -1582.20453081 2062.33883737 -1582.20453081C2062.33883737 -1582.20453081 2278.34652795 -1579.54510812 2278.34652795 -1579.54510812C2278.34652795 -1579.54510812 2274.96833299 -1651.0455866 2274.96833299 -1651.0455866C2274.96833299 -1651.0455866 2057.32074192 -1653.13167921 2057.32074192 -1653.13167921C2057.32074192 -1653.13167921 2057.32074192 -1653.13167921 2057.32074192 -1653.13167921">
    <title
       id="title198">#doe_vav_b-3-09</title>
    <desc
       id="desc200">Type=hvac</desc>
  </path>
  <path
     id="3rd_floor__#doe_vav_b-3-10"
     class="area area_hvac"
     d="M2057.32074192 -1653.13167921C2057.32074192 -1653.13167921 2062.33883737 -1582.20453081 2062.33883737 -1582.20453081C2062.33883737 -1582.20453081 2278.34652795 -1579.54510812 2278.34652795 -1579.54510812C2278.34652795 -1579.54510812 2274.96833299 -1651.0455866 2274.96833299 -1651.0455866C2274.96833299 -1651.0455866 2057.32074192 -1653.13167921 2057.32074192 -1653.13167921C2057.32074192 -1653.13167921 2057.32074192 -1653.13167921 2057.32074192 -1653.13167921">
    <title
       id="title203">#doe_vav_b-3-10</title>
    <desc
       id="desc205">Type=hvac</desc>
  </path>
  <path
     id="3rd_floor__#doe_vav_b-3-10n"
     class="area area_hvac"
     d="M2057.32074192 -1653.13167921C2057.32074192 -1653.13167921 2062.33883737 -1582.20453081 2062.33883737 -1582.20453081C2062.33883737 -1582.20453081 2278.34652795 -1579.54510812 2278.34652795 -1579.54510812C2278.34652795 -1579.54510812 2274.96833299 -1651.0455866 2274.96833299 -1651.0455866C2274.96833299 -1651.0455866 2057.32074192 -1653.13167921 2057.32074192 -1653.13167921C2057.32074192 -1653.13167921 2057.32074192 -1653.13167921 2057.32074192 -1653.13167921">
    <title
       id="title208">#doe_vav_b-3-10n</title>
    <desc
       id="desc210">Type=hvac</desc>
  </path>
  <path
     id="3rd_floor__#doe_vav_b-3-11"
     class="area area_hvac"
     d="M2057.32074192 -1653.13167921C2057.32074192 -1653.13167921 2062.33883737 -1582.20453081 2062.33883737 -1582.20453081C2062.33883737 -1582.20453081 2278.34652795 -1579.54510812 2278.34652795 -1579.54510812C2278.34652795 -1579.54510812 2274.96833299 -1651.0455866 2274.96833299 -1651.0455866C2274.96833299 -1651.0455866 2057.32074192 -1653.13167921 2057.32074192 -1653.13167921C2057.32074192 -1653.13167921 2057.32074192 -1653.13167921 2057.32074192 -1653.13167921">
    <title
       id="title213">#doe_vav_b-3-11</title>
    <desc
       id="desc215">Type=hvac</desc>
  </path>
  <path
     id="3rd_floor__#doe_vav_b-3-11n"
     class="area area_hvac"
     d="M2057.32074192 -1653.13167921C2057.32074192 -1653.13167921 2062.33883737 -1582.20453081 2062.33883737 -1582.20453081C2062.33883737 -1582.20453081 2278.34652795 -1579.54510812 2278.34652795 -1579.54510812C2278.34652795 -1579.54510812 2274.96833299 -1651.0455866 2274.96833299 -1651.0455866C2274.96833299 -1651.0455866 2057.32074192 -1653.13167921 2057.32074192 -1653.13167921C2057.32074192 -1653.13167921 2057.32074192 -1653.13167921 2057.32074192 -1653.13167921">
    <title
       id="title218">#doe_vav_b-3-11n</title>
    <desc
       id="desc220">Type=hvac</desc>
  </path>
  <path
     id="3rd_floor__#doe_vav_b-3-12"
     class="area area_hvac"
     d="M2057.32074192 -1653.13167921C2057.32074192 -1653.13167921 2062.33883737 -1582.20453081 2062.33883737 -1582.20453081C2062.33883737 -1582.20453081 2278.34652795 -1579.54510812 2278.34652795 -1579.54510812C2278.34652795 -1579.54510812 2274.96833299 -1651.0455866 2274.96833299 -1651.0455866C2274.96833299 -1651.0455866 2057.32074192 -1653.13167921 2057.32074192 -1653.13167921C2057.32074192 -1653.13167921 2057.32074192 -1653.13167921 2057.32074192 -1653.13167921">
    <title
       id="title223">#doe_vav_b-3-12</title>
    <desc
       id="desc225">Type=hvac</desc>
  </path>
  <path
     id="3rd_floor__#doe_vav_b-3-12n"
     class="area area_hvac"
     d="M2057.32074192 -1653.13167921C2057.32074192 -1653.13167921 2062.33883737 -1582.20453081 2062.33883737 -1582.20453081C2062.33883737 -1582.20453081 2278.34652795 -1579.54510812 2278.34652795 -1579.54510812C2278.34652795 -1579.54510812 2274.96833299 -1651.0455866 2274.96833299 -1651.0455866C2274.96833299 -1651.0455866 2057.32074192 -1653.13167921 2057.32074192 -1653.13167921C2057.32074192 -1653.13167921 2057.32074192 -1653.13167921 2057.32074192 -1653.13167921">
    <title
       id="title228">#doe_vav_b-3-12n</title>
    <desc
       id="desc230">Type=hvac</desc>
  </path>
  <path
     id="3rd_floor__#doe_vav_b-3-13"
     class="area area_hvac"
     d="M2057.32074192 -1653.13167921C2057.32074192 -1653.13167921 2062.33883737 -1582.20453081 2062.33883737 -1582.20453081C2062.33883737 -1582.20453081 2278.34652795 -1579.54510812 2278.34652795 -1579.54510812C2278.34652795 -1579.54510812 2274.96833299 -1651.0455866 2274.96833299 -1651.0455866C2274.96833299 -1651.0455866 2057.32074192 -1653.13167921 2057.32074192 -1653.13167921C2057.32074192 -1653.13167921 2057.32074192 -1653.13167921 2057.32074192 -1653.13167921">
    <title
       id="title233">#doe_vav_b-3-13</title>
    <desc
       id="desc235">Type=hvac</desc>
  </path>
  <path
     id="3rd_floor__#doe_vav_b-3-13n"
     class="area area_hvac"
     d="M2057.32074192 -1653.13167921C2057.32074192 -1653.13167921 2062.33883737 -1582.20453081 2062.33883737 -1582.20453081C2062.33883737 -1582.20453081 2278.34652795 -1579.54510812 2278.34652795 -1579.54510812C2278.34652795 -1579.54510812 2274.96833299 -1651.0455866 2274.96833299 -1651.0455866C2274.96833299 -1651.0455866 2057.32074192 -1653.13167921 2057.32074192 -1653.13167921C2057.32074192 -1653.13167921 2057.32074192 -1653.13167921 2057.32074192 -1653.13167921">
    <title
       id="title238">#doe_vav_b-3-13n</title>
    <desc
       id="desc240">Type=hvac</desc>
  </path>
  <path
     id="3rd_floor__#doe_vav_b-3-14"
     class="area area_hvac"
     d="M2057.32074192 -1653.13167921C2057.32074192 -1653.13167921 2062.33883737 -1582.20453081 2062.33883737 -1582.20453081C2062.33883737 -1582.20453081 2278.34652795 -1579.54510812 2278.34652795 -1579.54510812C2278.34652795 -1579.54510812 2274.96833299 -1651.0455866 2274.96833299 -1651.0455866C2274.96833299 -1651.0455866 2057.32074192 -1653.13167921 2057.32074192 -1653.13167921C2057.32074192 -1653.13167921 2057.32074192 -1653.13167921 2057.32074192 -1653.13167921">
    <title
       id="title243">#doe_vav_b-3-14</title>
    <desc
       id="desc245">Type=hvac</desc>
  </path>
  <path
     id="3rd_floor__#doe_vav_b-3-15"
     class="area area_hvac"
     d="M2057.32074192 -1653.13167921C2057.32074192 -1653.13167921 2062.33883737 -1582.20453081 2062.33883737 -1582.20453081C2062.33883737 -1582.20453081 2278.34652795 -1579.54510812 2278.34652795 -1579.54510812C2278.34652795 -1579.54510812 2274.96833299 -1651.0455866 2274.96833299 -1651.0455866C2274.96833299 -1651.0455866 2057.32074192 -1653.13167921 2057.32074192 -1653.13167921C2057.32074192 -1653.13167921 2057.32074192 -1653.13167921 2057.32074192 -1653.13167921">
    <title
       id="title248">#doe_vav_b-3-15</title>
    <desc
       id="desc250">Type=hvac</desc>
  </path>
  <path
     id="3rd_floor__#doe_vav_b-3-2n"
     class="area area_hvac"
     d="M2057.32074192 -1653.13167921C2057.32074192 -1653.13167921 2062.33883737 -1582.20453081 2062.33883737 -1582.20453081C2062.33883737 -1582.20453081 2278.34652795 -1579.54510812 2278.34652795 -1579.54510812C2278.34652795 -1579.54510812 2274.96833299 -1651.0455866 2274.96833299 -1651.0455866C2274.96833299 -1651.0455866 2057.32074192 -1653.13167921 2057.32074192 -1653.13167921C2057.32074192 -1653.13167921 2057.32074192 -1653.13167921 2057.32074192 -1653.13167921">
    <title
       id="title253">#doe_vav_b-3-2n</title>
    <desc
       id="desc255">Type=hvac</desc>
  </path>
  <path
     id="3rd_floor__#doe_vav_b-3-3n"
     class="area area_hvac"
     d="M2057.32074192 -1653.13167921C2057.32074192 -1653.13167921 2062.33883737 -1582.20453081 2062.33883737 -1582.20453081C2062.33883737 -1582.20453081 2278.34652795 -1579.54510812 2278.34652795 -1579.54510812C2278.34652795 -1579.54510812 2274.96833299 -1651.0455866 2274.96833299 -1651.0455866C2274.96833299 -1651.0455866 2057.32074192 -1653.13167921 2057.32074192 -1653.13167921C2057.32074192 -1653.13167921 2057.32074192 -1653.13167921 2057.32074192 -1653.13167921">
    <title
       id="title258">#doe_vav_b-3-3n</title>
    <desc
       id="desc260">Type=hvac</desc>
  </path>
  <path
     id="3rd_floor__#doe_vav_b-3-4n"
     class="area area_hvac"
     d="M2057.32074192 -1653.13167921C2057.32074192 -1653.13167921 2062.33883737 -1582.20453081 2062.33883737 -1582.20453081C2062.33883737 -1582.20453081 2278.34652795 -1579.54510812 2278.34652795 -1579.54510812C2278.34652795 -1579.54510812 2274.96833299 -1651.0455866 2274.96833299 -1651.0455866C2274.96833299 -1651.0455866 2057.32074192 -1653.13167921 2057.32074192 -1653.13167921C2057.32074192 -1653.13167921 2057.32074192 -1653.13167921 2057.32074192 -1653.13167921">
    <title
       id="title263">#doe_vav_b-3-4n</title>
    <desc
       id="desc265">Type=hvac</desc>
  </path>
  <path
     id="3rd_floor__#doe_vav_b-3-5n"
     class="area area_hvac"
     d="M2057.32074192 -1653.13167921C2057.32074192 -1653.13167921 2062.33883737 -1582.20453081 2062.33883737 -1582.20453081C2062.33883737 -1582.20453081 2278.34652795 -1579.54510812 2278.34652795 -1579.54510812C2278.34652795 -1579.54510812 2274.96833299 -1651.0455866 2274.96833299 -1651.0455866C2274.96833299 -1651.0455866 2057.32074192 -1653.13167921 2057.32074192 -1653.13167921C2057.32074192 -1653.13167921 2057.32074192 -1653.13167921 2057.32074192 -1653.13167921">
    <title
       id="title268">#doe_vav_b-3-5n</title>
    <desc
       id="desc270">Type=hvac</desc>
  </path>
  <path
     id="3rd_floor__#doe_vav_b-3-6n"
     class="area area_hvac"
     d="M2057.32074192 -1653.13167921C2057.32074192 -1653.13167921 2062.33883737 -1582.20453081 2062.33883737 -1582.20453081C2062.33883737 -1582.20453081 2278.34652795 -1579.54510812 2278.34652795 -1579.54510812C2278.34652795 -1579.54510812 2274.96833299 -1651.0455866 2274.96833299 -1651.0455866C2274.96833299 -1651.0455866 2057.32074192 -1653.13167921 2057.32074192 -1653.13167921C2057.32074192 -1653.13167921 2057.32074192 -1653.13167921 2057.32074192 -1653.13167921">
    <title
       id="title273">#doe_vav_b-3-6n</title>
    <desc
       id="desc275">Type=hvac</desc>
  </path>
  <path
     id="3rd_floor__#doe_vav_b-3-7n"
     class="area area_hvac"
     d="M2057.32074192 -1653.13167921C2057.32074192 -1653.13167921 2062.33883737 -1582.20453081 2062.33883737 -1582.20453081C2062.33883737 -1582.20453081 2278.34652795 -1579.54510812 2278.34652795 -1579.54510812C2278.34652795 -1579.54510812 2274.96833299 -1651.0455866 2274.96833299 -1651.0455866C2274.96833299 -1651.0455866 2057.32074192 -1653.13167921 2057.32074192 -1653.13167921C2057.32074192 -1653.13167921 2057.32074192 -1653.13167921 2057.32074192 -1653.13167921">
    <title
       id="title278">#doe_vav_b-3-7n</title>
    <desc
       id="desc280">Type=hvac</desc>
  </path>
  <path
     id="3rd_floor__#doe_vav_b-3-8n"
     class="area area_hvac"
     d="M2057.32074192 -1653.13167921C2057.32074192 -1653.13167921 2062.33883737 -1582.20453081 2062.33883737 -1582.20453081C2062.33883737 -1582.20453081 2278.34652795 -1579.54510812 2278.34652795 -1579.54510812C2278.34652795 -1579.54510812 2274.96833299 -1651.0455866 2274.96833299 -1651.0455866C2274.96833299 -1651.0455866 2057.32074192 -1653.13167921 2057.32074192 -1653.13167921C2057.32074192 -1653.13167921 2057.32074192 -1653.13167921 2057.32074192 -1653.13167921">
    <title
       id="title283">#doe_vav_b-3-8n</title>
    <desc
       id="desc285">Type=hvac</desc>
  </path>
  <path
     id="3rd_floor__#doe_vav_b-3-9n"
     class="area area_hvac"
     d="M2057.32074192 -1653.13167921C2057.32074192 -1653.13167921 2062.33883737 -1582.20453081 2062.33883737 -1582.20453081C2062.33883737 -1582.20453081 2278.34652795 -1579.54510812 2278.34652795 -1579.54510812C2278.34652795 -1579.54510812 2274.96833299 -1651.0455866 2274.96833299 -1651.0455866C2274.96833299 -1651.0455866 2057.32074192 -1653.13167921 2057.32074192 -1653.13167921C2057.32074192 -1653.13167921 2057.32074192 -1653.13167921 2057.32074192 -1653.13167921">
    <title
       id="title288">#doe_vav_b-3-9n</title>
    <desc
       id="desc290">Type=hvac</desc>
  </path>
</g>
<g
   id="4th_floor"
   inkscape:groupmode="layer"
   class="floor"
   inkscape:label="4th_floor">
  <image
     x="0"
     y="0"
     xlink:href="/Users/gabe/Documents/LoCal/LoCalProjects/data/floor_plans/bancroftfloor4.png"
     width="561"
     height="365"
     id="image293" />
  <path
     id="4th_floor__#doe_vav_b-4-01"
     class="area area_hvac"
     d="M2121.37472194 -1534.70668849C2121.37472194 -1534.70668849 2121.54309523 -1468.9506903 2121.54309523 -1468.9506903C2121.54309523 -1468.9506903 2331.60363336 -1466.29093693 2331.60363336 -1466.29093693C2331.60363336 -1466.29093693 2333.06947142 -1532.57695262 2333.06947142 -1532.57695262C2333.06947142 -1532.57695262 2121.37472194 -1534.70668849 2121.37472194 -1534.70668849C2121.37472194 -1534.70668849 2121.37472194 -1534.70668849 2121.37472194 -1534.70668849">
    <title
       id="title296">#doe_vav_b-4-01</title>
    <desc
       id="desc298">Type=hvac</desc>
  </path>
  <path
     id="4th_floor__#doe_vav_b-4-01n"
     class="area area_hvac"
     d="M2121.37472194 -1534.70668849C2121.37472194 -1534.70668849 2121.54309523 -1468.9506903 2121.54309523 -1468.9506903C2121.54309523 -1468.9506903 2331.60363336 -1466.29093693 2331.60363336 -1466.29093693C2331.60363336 -1466.29093693 2333.06947142 -1532.57695262 2333.06947142 -1532.57695262C2333.06947142 -1532.57695262 2121.37472194 -1534.70668849 2121.37472194 -1534.70668849C2121.37472194 -1534.70668849 2121.37472194 -1534.70668849 2121.37472194 -1534.70668849">
    <title
       id="title301">#doe_vav_b-4-01n</title>
    <desc
       id="desc303">Type=hvac</desc>
  </path>
  <path
     id="4th_floor__#doe_vav_b-4-02"
     class="area area_hvac"
     d="M2121.37472194 -1534.70668849C2121.37472194 -1534.70668849 2121.54309523 -1468.9506903 2121.54309523 -1468.9506903C2121.54309523 -1468.9506903 2331.60363336 -1466.29093693 2331.60363336 -1466.29093693C2331.60363336 -1466.29093693 2333.06947142 -1532.57695262 2333.06947142 -1532.57695262C2333.06947142 -1532.57695262 2121.37472194 -1534.70668849 2121.37472194 -1534.70668849C2121.37472194 -1534.70668849 2121.37472194 -1534.70668849 2121.37472194 -1534.70668849">
    <title
       id="title306">#doe_vav_b-4-02</title>
    <desc
       id="desc308">Type=hvac</desc>
  </path>
  <path
     id="4th_floor__#doe_vav_b-4-02n"
     class="area area_hvac"
     d="M2121.37472194 -1534.70668849C2121.37472194 -1534.70668849 2121.54309523 -1468.9506903 2121.54309523 -1468.9506903C2121.54309523 -1468.9506903 2331.60363336 -1466.29093693 2331.60363336 -1466.29093693C2331.60363336 -1466.29093693 2333.06947142 -1532.57695262 2333.06947142 -1532.57695262C2333.06947142 -1532.57695262 2121.37472194 -1534.70668849 2121.37472194 -1534.70668849C2121.37472194 -1534.70668849 2121.37472194 -1534.70668849 2121.37472194 -1534.70668849">
    <title
       id="title311">#doe_vav_b-4-02n</title>
    <desc
       id="desc313">Type=hvac</desc>
  </path>
  <path
     id="4th_floor__#doe_vav_b-4-03"
     class="area area_hvac"
     d="M2121.37472194 -1534.70668849C2121.37472194 -1534.70668849 2121.54309523 -1468.9506903 2121.54309523 -1468.9506903C2121.54309523 -1468.9506903 2331.60363336 -1466.29093693 2331.60363336 -1466.29093693C2331.60363336 -1466.29093693 2333.06947142 -1532.57695262 2333.06947142 -1532.57695262C2333.06947142 -1532.57695262 2121.37472194 -1534.70668849 2121.37472194 -1534.70668849C2121.37472194 -1534.70668849 2121.37472194 -1534.70668849 2121.37472194 -1534.70668849">
    <title
       id="title316">#doe_vav_b-4-03</title>
    <desc
       id="desc318">Type=hvac</desc>
  </path>
  <path
     id="4th_floor__#doe_vav_b-4-03n"
     class="area area_hvac"
     d="M2121.37472194 -1534.70668849C2121.37472194 -1534.70668849 2121.54309523 -1468.9506903 2121.54309523 -1468.9506903C2121.54309523 -1468.9506903 2331.60363336 -1466.29093693 2331.60363336 -1466.29093693C2331.60363336 -1466.29093693 2333.06947142 -1532.57695262 2333.06947142 -1532.57695262C2333.06947142 -1532.57695262 2121.37472194 -1534.70668849 2121.37472194 -1534.70668849C2121.37472194 -1534.70668849 2121.37472194 -1534.70668849 2121.37472194 -1534.70668849">
    <title
       id="title321">#doe_vav_b-4-03n</title>
    <desc
       id="desc323">Type=hvac</desc>
  </path>
  <path
     id="4th_floor__#doe_vav_b-4-04"
     class="area area_hvac"
     d="M2121.37472194 -1534.70668849C2121.37472194 -1534.70668849 2121.54309523 -1468.9506903 2121.54309523 -1468.9506903C2121.54309523 -1468.9506903 2331.60363336 -1466.29093693 2331.60363336 -1466.29093693C2331.60363336 -1466.29093693 2333.06947142 -1532.57695262 2333.06947142 -1532.57695262C2333.06947142 -1532.57695262 2121.37472194 -1534.70668849 2121.37472194 -1534.70668849C2121.37472194 -1534.70668849 2121.37472194 -1534.70668849 2121.37472194 -1534.70668849">
    <title
       id="title326">#doe_vav_b-4-04</title>
    <desc
       id="desc328">Type=hvac</desc>
  </path>
  <path
     id="4th_floor__#doe_vav_b-4-04n"
     class="area area_hvac"
     d="M2121.37472194 -1534.70668849C2121.37472194 -1534.70668849 2121.54309523 -1468.9506903 2121.54309523 -1468.9506903C2121.54309523 -1468.9506903 2331.60363336 -1466.29093693 2331.60363336 -1466.29093693C2331.60363336 -1466.29093693 2333.06947142 -1532.57695262 2333.06947142 -1532.57695262C2333.06947142 -1532.57695262 2121.37472194 -1534.70668849 2121.37472194 -1534.70668849C2121.37472194 -1534.70668849 2121.37472194 -1534.70668849 2121.37472194 -1534.70668849">
    <title
       id="title331">#doe_vav_b-4-04n</title>
    <desc
       id="desc333">Type=hvac</desc>
  </path>
  <path
     id="4th_floor__#doe_vav_b-4-05"
     class="area area_hvac"
     d="M2121.37472194 -1534.70668849C2121.37472194 -1534.70668849 2121.54309523 -1468.9506903 2121.54309523 -1468.9506903C2121.54309523 -1468.9506903 2331.60363336 -1466.29093693 2331.60363336 -1466.29093693C2331.60363336 -1466.29093693 2333.06947142 -1532.57695262 2333.06947142 -1532.57695262C2333.06947142 -1532.57695262 2121.37472194 -1534.70668849 2121.37472194 -1534.70668849C2121.37472194 -1534.70668849 2121.37472194 -1534.70668849 2121.37472194 -1534.70668849">
    <title
       id="title336">#doe_vav_b-4-05</title>
    <desc
       id="desc338">Type=hvac</desc>
  </path>
  <path
     id="4th_floor__#doe_vav_b-4-05n"
     class="area area_hvac"
     d="M2121.37472194 -1534.70668849C2121.37472194 -1534.70668849 2121.54309523 -1468.9506903 2121.54309523 -1468.9506903C2121.54309523 -1468.9506903 2331.60363336 -1466.29093693 2331.60363336 -1466.29093693C2331.60363336 -1466.29093693 2333.06947142 -1532.57695262 2333.06947142 -1532.57695262C2333.06947142 -1532.57695262 2121.37472194 -1534.70668849 2121.37472194 -1534.70668849C2121.37472194 -1534.70668849 2121.37472194 -1534.70668849 2121.37472194 -1534.70668849">
    <title
       id="title341">#doe_vav_b-4-05n</title>
    <desc
       id="desc343">Type=hvac</desc>
  </path>
  <path
     id="4th_floor__#doe_vav_b-4-06"
     class="area area_hvac"
     d="M2121.37472194 -1534.70668849C2121.37472194 -1534.70668849 2121.54309523 -1468.9506903 2121.54309523 -1468.9506903C2121.54309523 -1468.9506903 2331.60363336 -1466.29093693 2331.60363336 -1466.29093693C2331.60363336 -1466.29093693 2333.06947142 -1532.57695262 2333.06947142 -1532.57695262C2333.06947142 -1532.57695262 2121.37472194 -1534.70668849 2121.37472194 -1534.70668849C2121.37472194 -1534.70668849 2121.37472194 -1534.70668849 2121.37472194 -1534.70668849">
    <title
       id="title346">#doe_vav_b-4-06</title>
    <desc
       id="desc348">Type=hvac</desc>
  </path>
  <path
     id="4th_floor__#doe_vav_b-4-06n"
     class="area area_hvac"
     d="M2121.37472194 -1534.70668849C2121.37472194 -1534.70668849 2121.54309523 -1468.9506903 2121.54309523 -1468.9506903C2121.54309523 -1468.9506903 2331.60363336 -1466.29093693 2331.60363336 -1466.29093693C2331.60363336 -1466.29093693 2333.06947142 -1532.57695262 2333.06947142 -1532.57695262C2333.06947142 -1532.57695262 2121.37472194 -1534.70668849 2121.37472194 -1534.70668849C2121.37472194 -1534.70668849 2121.37472194 -1534.70668849 2121.37472194 -1534.70668849">
    <title
       id="title351">#doe_vav_b-4-06n</title>
    <desc
       id="desc353">Type=hvac</desc>
  </path>
  <path
     id="4th_floor__#doe_vav_b-4-07"
     class="area area_hvac"
     d="M2121.37472194 -1534.70668849C2121.37472194 -1534.70668849 2121.54309523 -1468.9506903 2121.54309523 -1468.9506903C2121.54309523 -1468.9506903 2331.60363336 -1466.29093693 2331.60363336 -1466.29093693C2331.60363336 -1466.29093693 2333.06947142 -1532.57695262 2333.06947142 -1532.57695262C2333.06947142 -1532.57695262 2121.37472194 -1534.70668849 2121.37472194 -1534.70668849C2121.37472194 -1534.70668849 2121.37472194 -1534.70668849 2121.37472194 -1534.70668849">
    <title
       id="title356">#doe_vav_b-4-07</title>
    <desc
       id="desc358">Type=hvac</desc>
  </path>
  <path
     id="4th_floor__#doe_vav_b-4-07n"
     class="area area_hvac"
     d="M2121.37472194 -1534.70668849C2121.37472194 -1534.70668849 2121.54309523 -1468.9506903 2121.54309523 -1468.9506903C2121.54309523 -1468.9506903 2331.60363336 -1466.29093693 2331.60363336 -1466.29093693C2331.60363336 -1466.29093693 2333.06947142 -1532.57695262 2333.06947142 -1532.57695262C2333.06947142 -1532.57695262 2121.37472194 -1534.70668849 2121.37472194 -1534.70668849C2121.37472194 -1534.70668849 2121.37472194 -1534.70668849 2121.37472194 -1534.70668849">
    <title
       id="title361">#doe_vav_b-4-07n</title>
    <desc
       id="desc363">Type=hvac</desc>
  </path>
  <path
     id="4th_floor__#doe_vav_b-4-08"
     class="area area_hvac"
     d="M2121.37472194 -1534.70668849C2121.37472194 -1534.70668849 2121.54309523 -1468.9506903 2121.54309523 -1468.9506903C2121.54309523 -1468.9506903 2331.60363336 -1466.29093693 2331.60363336 -1466.29093693C2331.60363336 -1466.29093693 2333.06947142 -1532.57695262 2333.06947142 -1532.57695262C2333.06947142 -1532.57695262 2121.37472194 -1534.70668849 2121.37472194 -1534.70668849C2121.37472194 -1534.70668849 2121.37472194 -1534.70668849 2121.37472194 -1534.70668849">
    <title
       id="title366">#doe_vav_b-4-08</title>
    <desc
       id="desc368">Type=hvac</desc>
  </path>
  <path
     id="4th_floor__#doe_vav_b-4-08n"
     class="area area_hvac"
     d="M2121.37472194 -1534.70668849C2121.37472194 -1534.70668849 2121.54309523 -1468.9506903 2121.54309523 -1468.9506903C2121.54309523 -1468.9506903 2331.60363336 -1466.29093693 2331.60363336 -1466.29093693C2331.60363336 -1466.29093693 2333.06947142 -1532.57695262 2333.06947142 -1532.57695262C2333.06947142 -1532.57695262 2121.37472194 -1534.70668849 2121.37472194 -1534.70668849C2121.37472194 -1534.70668849 2121.37472194 -1534.70668849 2121.37472194 -1534.70668849">
    <title
       id="title371">#doe_vav_b-4-08n</title>
    <desc
       id="desc373">Type=hvac</desc>
  </path>
  <path
     id="4th_floor__#doe_vav_b-4-09"
     class="area area_hvac"
     d="M2121.37472194 -1534.70668849C2121.37472194 -1534.70668849 2121.54309523 -1468.9506903 2121.54309523 -1468.9506903C2121.54309523 -1468.9506903 2331.60363336 -1466.29093693 2331.60363336 -1466.29093693C2331.60363336 -1466.29093693 2333.06947142 -1532.57695262 2333.06947142 -1532.57695262C2333.06947142 -1532.57695262 2121.37472194 -1534.70668849 2121.37472194 -1534.70668849C2121.37472194 -1534.70668849 2121.37472194 -1534.70668849 2121.37472194 -1534.70668849">
    <title
       id="title376">#doe_vav_b-4-09</title>
    <desc
       id="desc378">Type=hvac</desc>
  </path>
  <path
     id="4th_floor__#doe_vav_b-4-09n"
     class="area area_hvac"
     d="M2121.37472194 -1534.70668849C2121.37472194 -1534.70668849 2121.54309523 -1468.9506903 2121.54309523 -1468.9506903C2121.54309523 -1468.9506903 2331.60363336 -1466.29093693 2331.60363336 -1466.29093693C2331.60363336 -1466.29093693 2333.06947142 -1532.57695262 2333.06947142 -1532.57695262C2333.06947142 -1532.57695262 2121.37472194 -1534.70668849 2121.37472194 -1534.70668849C2121.37472194 -1534.70668849 2121.37472194 -1534.70668849 2121.37472194 -1534.70668849">
    <title
       id="title381">#doe_vav_b-4-09n</title>
    <desc
       id="desc383">Type=hvac</desc>
  </path>
  <path
     id="4th_floor__#doe_vav_b-4-10"
     class="area area_hvac"
     d="M2121.37472194 -1534.70668849C2121.37472194 -1534.70668849 2121.54309523 -1468.9506903 2121.54309523 -1468.9506903C2121.54309523 -1468.9506903 2331.60363336 -1466.29093693 2331.60363336 -1466.29093693C2331.60363336 -1466.29093693 2333.06947142 -1532.57695262 2333.06947142 -1532.57695262C2333.06947142 -1532.57695262 2121.37472194 -1534.70668849 2121.37472194 -1534.70668849C2121.37472194 -1534.70668849 2121.37472194 -1534.70668849 2121.37472194 -1534.70668849">
    <title
       id="title386">#doe_vav_b-4-10</title>
    <desc
       id="desc388">Type=hvac</desc>
  </path>
  <path
     id="4th_floor__#doe_vav_b-4-10n"
     class="area area_hvac"
     d="M2121.37472194 -1534.70668849C2121.37472194 -1534.70668849 2121.54309523 -1468.9506903 2121.54309523 -1468.9506903C2121.54309523 -1468.9506903 2331.60363336 -1466.29093693 2331.60363336 -1466.29093693C2331.60363336 -1466.29093693 2333.06947142 -1532.57695262 2333.06947142 -1532.57695262C2333.06947142 -1532.57695262 2121.37472194 -1534.70668849 2121.37472194 -1534.70668849C2121.37472194 -1534.70668849 2121.37472194 -1534.70668849 2121.37472194 -1534.70668849">
    <title
       id="title391">#doe_vav_b-4-10n</title>
    <desc
       id="desc393">Type=hvac</desc>
  </path>
  <path
     id="4th_floor__#doe_vav_b-4-11"
     class="area area_hvac"
     d="M2121.37472194 -1534.70668849C2121.37472194 -1534.70668849 2121.54309523 -1468.9506903 2121.54309523 -1468.9506903C2121.54309523 -1468.9506903 2331.60363336 -1466.29093693 2331.60363336 -1466.29093693C2331.60363336 -1466.29093693 2333.06947142 -1532.57695262 2333.06947142 -1532.57695262C2333.06947142 -1532.57695262 2121.37472194 -1534.70668849 2121.37472194 -1534.70668849C2121.37472194 -1534.70668849 2121.37472194 -1534.70668849 2121.37472194 -1534.70668849">
    <title
       id="title396">#doe_vav_b-4-11</title>
    <desc
       id="desc398">Type=hvac</desc>
  </path>
  <path
     id="4th_floor__#doe_vav_b-4-11n"
     class="area area_hvac"
     d="M2121.37472194 -1534.70668849C2121.37472194 -1534.70668849 2121.54309523 -1468.9506903 2121.54309523 -1468.9506903C2121.54309523 -1468.9506903 2331.60363336 -1466.29093693 2331.60363336 -1466.29093693C2331.60363336 -1466.29093693 2333.06947142 -1532.57695262 2333.06947142 -1532.57695262C2333.06947142 -1532.57695262 2121.37472194 -1534.70668849 2121.37472194 -1534.70668849C2121.37472194 -1534.70668849 2121.37472194 -1534.70668849 2121.37472194 -1534.70668849">
    <title
       id="title401">#doe_vav_b-4-11n</title>
    <desc
       id="desc403">Type=hvac</desc>
  </path>
  <path
     id="4th_floor__#doe_vav_b-4-12"
     class="area area_hvac"
     d="M2121.37472194 -1534.70668849C2121.37472194 -1534.70668849 2121.54309523 -1468.9506903 2121.54309523 -1468.9506903C2121.54309523 -1468.9506903 2331.60363336 -1466.29093693 2331.60363336 -1466.29093693C2331.60363336 -1466.29093693 2333.06947142 -1532.57695262 2333.06947142 -1532.57695262C2333.06947142 -1532.57695262 2121.37472194 -1534.70668849 2121.37472194 -1534.70668849C2121.37472194 -1534.70668849 2121.37472194 -1534.70668849 2121.37472194 -1534.70668849">
    <title
       id="title406">#doe_vav_b-4-12</title>
    <desc
       id="desc408">Type=hvac</desc>
  </path>
  <path
     id="4th_floor__#doe_vav_b-4-12n"
     class="area area_hvac"
     d="M2121.37472194 -1534.70668849C2121.37472194 -1534.70668849 2121.54309523 -1468.9506903 2121.54309523 -1468.9506903C2121.54309523 -1468.9506903 2331.60363336 -1466.29093693 2331.60363336 -1466.29093693C2331.60363336 -1466.29093693 2333.06947142 -1532.57695262 2333.06947142 -1532.57695262C2333.06947142 -1532.57695262 2121.37472194 -1534.70668849 2121.37472194 -1534.70668849C2121.37472194 -1534.70668849 2121.37472194 -1534.70668849 2121.37472194 -1534.70668849">
    <title
       id="title411">#doe_vav_b-4-12n</title>
    <desc
       id="desc413">Type=hvac</desc>
  </path>
  <path
     id="4th_floor__#doe_vav_b-4-13"
     class="area area_hvac"
     d="M2121.37472194 -1534.70668849C2121.37472194 -1534.70668849 2121.54309523 -1468.9506903 2121.54309523 -1468.9506903C2121.54309523 -1468.9506903 2331.60363336 -1466.29093693 2331.60363336 -1466.29093693C2331.60363336 -1466.29093693 2333.06947142 -1532.57695262 2333.06947142 -1532.57695262C2333.06947142 -1532.57695262 2121.37472194 -1534.70668849 2121.37472194 -1534.70668849C2121.37472194 -1534.70668849 2121.37472194 -1534.70668849 2121.37472194 -1534.70668849">
    <title
       id="title416">#doe_vav_b-4-13</title>
    <desc
       id="desc418">Type=hvac</desc>
  </path>
  <path
     id="4th_floor__#doe_vav_b-4-13n"
     class="area area_hvac"
     d="M2121.37472194 -1534.70668849C2121.37472194 -1534.70668849 2121.54309523 -1468.9506903 2121.54309523 -1468.9506903C2121.54309523 -1468.9506903 2331.60363336 -1466.29093693 2331.60363336 -1466.29093693C2331.60363336 -1466.29093693 2333.06947142 -1532.57695262 2333.06947142 -1532.57695262C2333.06947142 -1532.57695262 2121.37472194 -1534.70668849 2121.37472194 -1534.70668849C2121.37472194 -1534.70668849 2121.37472194 -1534.70668849 2121.37472194 -1534.70668849">
    <title
       id="title421">#doe_vav_b-4-13n</title>
    <desc
       id="desc423">Type=hvac</desc>
  </path>
  <path
     id="4th_floor__#doe_vav_b-4-14"
     class="area area_hvac"
     d="M2121.37472194 -1534.70668849C2121.37472194 -1534.70668849 2121.54309523 -1468.9506903 2121.54309523 -1468.9506903C2121.54309523 -1468.9506903 2331.60363336 -1466.29093693 2331.60363336 -1466.29093693C2331.60363336 -1466.29093693 2333.06947142 -1532.57695262 2333.06947142 -1532.57695262C2333.06947142 -1532.57695262 2121.37472194 -1534.70668849 2121.37472194 -1534.70668849C2121.37472194 -1534.70668849 2121.37472194 -1534.70668849 2121.37472194 -1534.70668849">
    <title
       id="title426">#doe_vav_b-4-14</title>
    <desc
       id="desc428">Type=hvac</desc>
  </path>
  <path
     id="4th_floor__#doe_vav_b-4-14n"
     class="area area_hvac"
     d="M2121.37472194 -1534.70668849C2121.37472194 -1534.70668849 2121.54309523 -1468.9506903 2121.54309523 -1468.9506903C2121.54309523 -1468.9506903 2331.60363336 -1466.29093693 2331.60363336 -1466.29093693C2331.60363336 -1466.29093693 2333.06947142 -1532.57695262 2333.06947142 -1532.57695262C2333.06947142 -1532.57695262 2121.37472194 -1534.70668849 2121.37472194 -1534.70668849C2121.37472194 -1534.70668849 2121.37472194 -1534.70668849 2121.37472194 -1534.70668849">
    <title
       id="title431">#doe_vav_b-4-14n</title>
    <desc
       id="desc433">Type=hvac</desc>
  </path>
  <path
     id="4th_floor__#doe_vav_b-4-15"
     class="area area_hvac"
     d="M2121.37472194 -1534.70668849C2121.37472194 -1534.70668849 2121.54309523 -1468.9506903 2121.54309523 -1468.9506903C2121.54309523 -1468.9506903 2331.60363336 -1466.29093693 2331.60363336 -1466.29093693C2331.60363336 -1466.29093693 2333.06947142 -1532.57695262 2333.06947142 -1532.57695262C2333.06947142 -1532.57695262 2121.37472194 -1534.70668849 2121.37472194 -1534.70668849C2121.37472194 -1534.70668849 2121.37472194 -1534.70668849 2121.37472194 -1534.70668849">
    <title
       id="title436">#doe_vav_b-4-15</title>
    <desc
       id="desc438">Type=hvac</desc>
  </path>
  <path
     id="4th_floor__#doe_vav_b-4-15n"
     class="area area_hvac"
     d="M2121.37472194 -1534.70668849C2121.37472194 -1534.70668849 2121.54309523 -1468.9506903 2121.54309523 -1468.9506903C2121.54309523 -1468.9506903 2331.60363336 -1466.29093693 2331.60363336 -1466.29093693C2331.60363336 -1466.29093693 2333.06947142 -1532.57695262 2333.06947142 -1532.57695262C2333.06947142 -1532.57695262 2121.37472194 -1534.70668849 2121.37472194 -1534.70668849C2121.37472194 -1534.70668849 2121.37472194 -1534.70668849 2121.37472194 -1534.70668849">
    <title
       id="title441">#doe_vav_b-4-15n</title>
    <desc
       id="desc443">Type=hvac</desc>
  </path>
  <path
     id="4th_floor__#doe_vav_b-4-16"
     class="area area_hvac"
     d="M2121.37472194 -1534.70668849C2121.37472194 -1534.70668849 2121.54309523 -1468.9506903 2121.54309523 -1468.9506903C2121.54309523 -1468.9506903 2331.60363336 -1466.29093693 2331.60363336 -1466.29093693C2331.60363336 -1466.29093693 2333.06947142 -1532.57695262 2333.06947142 -1532.57695262C2333.06947142 -1532.57695262 2121.37472194 -1534.70668849 2121.37472194 -1534.70668849C2121.37472194 -1534.70668849 2121.37472194 -1534.70668849 2121.37472194 -1534.70668849">
    <title
       id="title446">#doe_vav_b-4-16</title>
    <desc
       id="desc448">Type=hvac</desc>
  </path>
  <path
     id="4th_floor__#doe_vav_b-4-16n"
     class="area area_hvac"
     d="M2121.37472194 -1534.70668849C2121.37472194 -1534.70668849 2121.54309523 -1468.9506903 2121.54309523 -1468.9506903C2121.54309523 -1468.9506903 2331.60363336 -1466.29093693 2331.60363336 -1466.29093693C2331.60363336 -1466.29093693 2333.06947142 -1532.57695262 2333.06947142 -1532.57695262C2333.06947142 -1532.57695262 2121.37472194 -1534.70668849 2121.37472194 -1534.70668849C2121.37472194 -1534.70668849 2121.37472194 -1534.70668849 2121.37472194 -1534.70668849">
    <title
       id="title451">#doe_vav_b-4-16n</title>
    <desc
       id="desc453">Type=hvac</desc>
  </path>
  <path
     id="4th_floor__#doe_vav_b-4-17"
     class="area area_hvac"
     d="M2121.37472194 -1534.70668849C2121.37472194 -1534.70668849 2121.54309523 -1468.9506903 2121.54309523 -1468.9506903C2121.54309523 -1468.9506903 2331.60363336 -1466.29093693 2331.60363336 -1466.29093693C2331.60363336 -1466.29093693 2333.06947142 -1532.57695262 2333.06947142 -1532.57695262C2333.06947142 -1532.57695262 2121.37472194 -1534.70668849 2121.37472194 -1534.70668849C2121.37472194 -1534.70668849 2121.37472194 -1534.70668849 2121.37472194 -1534.70668849">
    <title
       id="title456">#doe_vav_b-4-17</title>
    <desc
       id="desc458">Type=hvac</desc>
  </path>
  <path
     id="4th_floor__#doe_vav_b-4-17n"
     class="area area_hvac"
     d="M2121.37472194 -1534.70668849C2121.37472194 -1534.70668849 2121.54309523 -1468.9506903 2121.54309523 -1468.9506903C2121.54309523 -1468.9506903 2331.60363336 -1466.29093693 2331.60363336 -1466.29093693C2331.60363336 -1466.29093693 2333.06947142 -1532.57695262 2333.06947142 -1532.57695262C2333.06947142 -1532.57695262 2121.37472194 -1534.70668849 2121.37472194 -1534.70668849C2121.37472194 -1534.70668849 2121.37472194 -1534.70668849 2121.37472194 -1534.70668849">
    <title
       id="title461">#doe_vav_b-4-17n</title>
    <desc
       id="desc463">Type=hvac</desc>
  </path>
  <path
     id="4th_floor__#doe_vav_b-4-18"
     class="area area_hvac"
     d="M2121.37472194 -1534.70668849C2121.37472194 -1534.70668849 2121.54309523 -1468.9506903 2121.54309523 -1468.9506903C2121.54309523 -1468.9506903 2331.60363336 -1466.29093693 2331.60363336 -1466.29093693C2331.60363336 -1466.29093693 2333.06947142 -1532.57695262 2333.06947142 -1532.57695262C2333.06947142 -1532.57695262 2121.37472194 -1534.70668849 2121.37472194 -1534.70668849C2121.37472194 -1534.70668849 2121.37472194 -1534.70668849 2121.37472194 -1534.70668849">
    <title
       id="title466">#doe_vav_b-4-18</title>
    <desc
       id="desc468">Type=hvac</desc>
  </path>
  <path
     id="4th_floor__#doe_vav_b-4-18n"
     class="area area_hvac"
     d="M2121.37472194 -1534.70668849C2121.37472194 -1534.70668849 2121.54309523 -1468.9506903 2121.54309523 -1468.9506903C2121.54309523 -1468.9506903 2331.60363336 -1466.29093693 2331.60363336 -1466.29093693C2331.60363336 -1466.29093693 2333.06947142 -1532.57695262 2333.06947142 -1532.57695262C2333.06947142 -1532.57695262 2121.37472194 -1534.70668849 2121.37472194 -1534.70668849C2121.37472194 -1534.70668849 2121.37472194 -1534.70668849 2121.37472194 -1534.70668849">
    <title
       id="title471">#doe_vav_b-4-18n</title>
    <desc
       id="desc473">Type=hvac</desc>
  </path>
  <path
     id="4th_floor__#doe_vav_b-4-19"
     class="area area_hvac"
     d="M2121.37472194 -1534.70668849C2121.37472194 -1534.70668849 2121.54309523 -1468.9506903 2121.54309523 -1468.9506903C2121.54309523 -1468.9506903 2331.60363336 -1466.29093693 2331.60363336 -1466.29093693C2331.60363336 -1466.29093693 2333.06947142 -1532.57695262 2333.06947142 -1532.57695262C2333.06947142 -1532.57695262 2121.37472194 -1534.70668849 2121.37472194 -1534.70668849C2121.37472194 -1534.70668849 2121.37472194 -1534.70668849 2121.37472194 -1534.70668849">
    <title
       id="title476">#doe_vav_b-4-19</title>
    <desc
       id="desc478">Type=hvac</desc>
  </path>
  <path
     id="4th_floor__#doe_vav_b-4-20"
     class="area area_hvac"
     d="M2121.37472194 -1534.70668849C2121.37472194 -1534.70668849 2121.54309523 -1468.9506903 2121.54309523 -1468.9506903C2121.54309523 -1468.9506903 2331.60363336 -1466.29093693 2331.60363336 -1466.29093693C2331.60363336 -1466.29093693 2333.06947142 -1532.57695262 2333.06947142 -1532.57695262C2333.06947142 -1532.57695262 2121.37472194 -1534.70668849 2121.37472194 -1534.70668849C2121.37472194 -1534.70668849 2121.37472194 -1534.70668849 2121.37472194 -1534.70668849">
    <title
       id="title481">#doe_vav_b-4-20</title>
    <desc
       id="desc483">Type=hvac</desc>
  </path>
</g>
<g
   id="penthouse"
   inkscape:groupmode="layer"
   class="floor"
   inkscape:label="penthouse">
  <image
     x="0"
     y="0"
     xlink:href="/Users/gabe/Documents/LoCal/LoCalProjects/data/floor_plans/bancroftfloor6.png"
     width="442"
     height="255"
     id="image537" />
</g>
<g
   id="basement"
   inkscape:groupmode="layer"
   class="floor"
   inkscape:label="basement">
  <image
     x="0"
     y="0"
     xlink:href="/Users/gabe/Documents/LoCal/LoCalProjects/data/floor_plans/bancroftfloor0.png"
     width="723"
     height="423"
     id="image509" />
  <path
     id="basement__#doe_vav_c-0-1"
     class="area area_hvac"
     d="M2628.38510254 -1774.61754827C2628.38510254 -1774.61754827 2632.30334824 -1699.06197622 2632.30334824 -1699.06197622C2632.30334824 -1699.06197622 2902.52022141 -1697.74120378 2902.52022141 -1697.74120378C2902.52022141 -1697.74120378 2900.67318374 -1773.91929375 2900.67318374 -1773.91929375C2900.67318374 -1773.91929375 2628.38510254 -1774.61754827 2628.38510254 -1774.61754827C2628.38510254 -1774.61754827 2628.38510254 -1774.61754827 2628.38510254 -1774.61754827">
    <title
       id="title512">#doe_vav_c-0-1</title>
    <desc
       id="desc514">Type=hvac</desc>
  </path>
  <path
     id="basement__#doe_vav_c-0-2"
     class="area area_hvac"
     d="M2628.38510254 -1774.61754827C2628.38510254 -1774.61754827 2632.30334824 -1699.06197622 2632.30334824 -1699.06197622C2632.30334824 -1699.06197622 2902.52022141 -1697.74120378 2902.52022141 -1697.74120378C2902.52022141 -1697.74120378 2900.67318374 -1773.91929375 2900.67318374 -1773.91929375C2900.67318374 -1773.91929375 2628.38510254 -1774.61754827 2628.38510254 -1774.61754827C2628.38510254 -1774.61754827 2628.38510254 -1774.61754827 2628.38510254 -1774.61754827">
    <title
       id="title517">#doe_vav_c-0-2</title>
    <desc
       id="desc519">Type=hvac</desc>
  </path>
  <path
     id="basement__#doe_vav_c-0-3"
     class="area area_hvac"
     d="M2628.38510254 -1774.61754827C2628.38510254 -1774.61754827 2632.30334824 -1699.06197622 2632.30334824 -1699.06197622C2632.30334824 -1699.06197622 2902.52022141 -1697.74120378 2902.52022141 -1697.74120378C2902.52022141 -1697.74120378 2900.67318374 -1773.91929375 2900.67318374 -1773.91929375C2900.67318374 -1773.91929375 2628.38510254 -1774.61754827 2628.38510254 -1774.61754827C2628.38510254 -1774.61754827 2628.38510254 -1774.61754827 2628.38510254 -1774.61754827">
    <title
       id="title522">#doe_vav_c-0-3</title>
    <desc
       id="desc524">Type=hvac</desc>
  </path>
  <path
     id="basement__#doe_vav_c-0-4"
     class="area area_hvac"
     d="M2628.38510254 -1774.61754827C2628.38510254 -1774.61754827 2632.30334824 -1699.06197622 2632.30334824 -1699.06197622C2632.30334824 -1699.06197622 2902.52022141 -1697.74120378 2902.52022141 -1697.74120378C2902.52022141 -1697.74120378 2900.67318374 -1773.91929375 2900.67318374 -1773.91929375C2900.67318374 -1773.91929375 2628.38510254 -1774.61754827 2628.38510254 -1774.61754827C2628.38510254 -1774.61754827 2628.38510254 -1774.61754827 2628.38510254 -1774.61754827">
    <title
       id="title527">#doe_vav_c-0-4</title>
    <desc
       id="desc529">Type=hvac</desc>
  </path>
  <path
     id="basement__#doe_vav_c-0-5"
     class="area area_hvac"
     d="M2628.38510254 -1774.61754827C2628.38510254 -1774.61754827 2632.30334824 -1699.06197622 2632.30334824 -1699.06197622C2632.30334824 -1699.06197622 2902.52022141 -1697.74120378 2902.52022141 -1697.74120378C2902.52022141 -1697.74120378 2900.67318374 -1773.91929375 2900.67318374 -1773.91929375C2900.67318374 -1773.91929375 2628.38510254 -1774.61754827 2628.38510254 -1774.61754827C2628.38510254 -1774.61754827 2628.38510254 -1774.61754827 2628.38510254 -1774.61754827">
    <title
       id="title532">#doe_vav_c-0-5</title>
    <desc
       id="desc534">Type=hvac</desc>
  </path>
  <rect
     style="fill:#ff0000"
     id="rect3520"
     width="174.59299"
     height="182.94307"
     x="16.700199"
     y="51.349442">
    <desc
       id="desc3524">Type=hvac</desc>
    <title
       id="title3522">#doe_vav_c-0-5</title>
  </rect>
  <rect
     style="fill:#ff0000"
     id="rect3526"
     width="170.03839"
     height="80.464592"
     x="107.03309"
     y="19.467243"
     ry="1.5181998">
    <desc
       id="desc3530">Type=lighting</desc>
    <title
       id="title3528">#doe_vav_c-0-4</title>
  </rect>
  <rect
     style="fill:#ff0000"
     id="rect3532"
     width="77.428192"
     height="174.59299"
     x="272.51688"
     y="21.744543"
     ry="1.5181998">
    <desc
       id="desc3536">Type=hvac</desc>
    <title
       id="title3534">#doe_vav-c-0-3</title>
  </rect>
  <rect
     style="fill:#ff0000"
     id="rect3538"
     width="59.968895"
     height="63.764393"
     x="279.34879"
     y="201.65123"
     ry="1.5181998">
    <desc
       id="desc3542">Type=hvac</desc>
    <title
       id="title3540">#doe_vav_c-0-1</title>
  </rect>
  <path
     style="fill:#ff0000"
     d="m 398.52745,98.413635 55.41429,0 c 0.84108,0 1.5182,0.677117 1.5182,1.5182 l 0,38.714095 c 0,0.84108 -0.67712,1.5182 -1.5182,1.5182 l -55.41429,0 c -0.84109,0 -1.5182,-0.67712 -1.5182,-1.5182 l 0,-38.714095 c 0,-0.841083 0.67711,-1.5182 1.5182,-1.5182 z"
     id="rect3544">
    <desc
       id="desc3549">Type=hvac</desc>
    <title
       id="title3547">#doe_vav_c-0-2</title>
  </path>
</g>
<g
   id="5th_floor"
   inkscape:groupmode="layer"
   class="floor"
   inkscape:label="5th_floor">
  <image
     x="0"
     y="0"
     xlink:href="/Users/gabe/Documents/LoCal/LoCalProjects/data/floor_plans/bancroftfloor5.png"
     width="523"
     height="338"
     id="image486" />
  <path
     id="5th_floor__#doe_vav_b-5-01"
     class="area area_hvac"
     d="M1920.8555273 -1390.11178242C1920.8555273 -1390.11178242 1921.04063074 -1330.84852371 1921.04063074 -1330.84852371C1921.04063074 -1330.84852371 2110.86095278 -1329.82254551 2110.86095278 -1329.82254551C2110.86095278 -1329.82254551 2112.15232158 -1389.57416421 2112.15232158 -1389.57416421C2112.15232158 -1389.57416421 1920.8555273 -1390.11178242 1920.8555273 -1390.11178242C1920.8555273 -1390.11178242 1920.8555273 -1390.11178242 1920.8555273 -1390.11178242">
    <title
       id="title489">#doe_vav_b-5-01</title>
    <desc
       id="desc491">Type=hvac</desc>
  </path>
  <path
     id="5th_floor__#doe_vav_b-5-01n"
     class="area area_hvac"
     d="M1920.8555273 -1390.11178242C1920.8555273 -1390.11178242 1921.04063074 -1330.84852371 1921.04063074 -1330.84852371C1921.04063074 -1330.84852371 2110.86095278 -1329.82254551 2110.86095278 -1329.82254551C2110.86095278 -1329.82254551 2112.15232158 -1389.57416421 2112.15232158 -1389.57416421C2112.15232158 -1389.57416421 1920.8555273 -1390.11178242 1920.8555273 -1390.11178242C1920.8555273 -1390.11178242 1920.8555273 -1390.11178242 1920.8555273 -1390.11178242">
    <title
       id="title494">#doe_vav_b-5-01n</title>
    <desc
       id="desc496">Type=hvac</desc>
  </path>
  <path
     id="5th_floor__#doe_vav_b-5-02"
     class="area area_hvac"
     d="M1920.8555273 -1390.11178242C1920.8555273 -1390.11178242 1921.04063074 -1330.84852371 1921.04063074 -1330.84852371C1921.04063074 -1330.84852371 2110.86095278 -1329.82254551 2110.86095278 -1329.82254551C2110.86095278 -1329.82254551 2112.15232158 -1389.57416421 2112.15232158 -1389.57416421C2112.15232158 -1389.57416421 1920.8555273 -1390.11178242 1920.8555273 -1390.11178242C1920.8555273 -1390.11178242 1920.8555273 -1390.11178242 1920.8555273 -1390.11178242">
    <title
       id="title499">#doe_vav_b-5-02</title>
    <desc
       id="desc501">Type=hvac</desc>
  </path>
  <path
     id="5th_floor__#doe_vav_b-5-02n"
     class="area area_hvac"
     d="M1920.8555273 -1390.11178242C1920.8555273 -1390.11178242 1921.04063074 -1330.84852371 1921.04063074 -1330.84852371C1921.04063074 -1330.84852371 2110.86095278 -1329.82254551 2110.86095278 -1329.82254551C2110.86095278 -1329.82254551 2112.15232158 -1389.57416421 2112.15232158 -1389.57416421C2112.15232158 -1389.57416421 1920.8555273 -1390.11178242 1920.8555273 -1390.11178242C1920.8555273 -1390.11178242 1920.8555273 -1390.11178242 1920.8555273 -1390.11178242">
    <title
       id="title504">#doe_vav_b-5-02n</title>
    <desc
       id="desc506">Type=hvac</desc>
  </path>
</g>
<g
   id="1st_floor"
   inkscape:groupmode="layer"
   class="floor"
   inkscape:label="1st_floor">
  <image
     x="0"
     y="0"
     xlink:href="/Users/gabe/Documents/LoCal/LoCalProjects/data/floor_plans/bancroftfloor1.png"
     width="730"
     height="469"
     id="image9" />
  <path
     id="1st_floor__#doe_vav_c-1-1"
     class="area area_hvac"
     d="M2706.3905147 -1984.27768987C2706.3905147 -1984.27768987 2708.18991891 -1899.92066503 2708.18991891 -1899.92066503C2708.18991891 -1899.92066503 2980.76597604 -1898.10724451 2980.76597604 -1898.10724451C2980.76597604 -1898.10724451 2981.07389548 -1983.15666629 2981.07389548 -1983.15666629C2981.07389548 -1983.15666629 2706.3905147 -1984.27768987 2706.3905147 -1984.27768987C2706.3905147 -1984.27768987 2706.3905147 -1984.27768987 2706.3905147 -1984.27768987">
    <title
       id="title12">#doe_vav_c-1-1</title>
    <desc
       id="desc14">Type=hvac</desc>
  </path>
  <path
     id="1st_floor__#doe_vav_c-1-2"
     class="area area_hvac"
     d="M2706.3905147 -1984.27768987C2706.3905147 -1984.27768987 2708.18991891 -1899.92066503 2708.18991891 -1899.92066503C2708.18991891 -1899.92066503 2980.76597604 -1898.10724451 2980.76597604 -1898.10724451C2980.76597604 -1898.10724451 2981.07389548 -1983.15666629 2981.07389548 -1983.15666629C2981.07389548 -1983.15666629 2706.3905147 -1984.27768987 2706.3905147 -1984.27768987C2706.3905147 -1984.27768987 2706.3905147 -1984.27768987 2706.3905147 -1984.27768987">
    <title
       id="title17">#doe_vav_c-1-2</title>
    <desc
       id="desc19">Type=hvac</desc>
  </path>
  <path
     id="1st_floor__#doe_vav_c-1-3"
     class="area area_hvac"
     d="M2706.3905147 -1984.27768987C2706.3905147 -1984.27768987 2708.18991891 -1899.92066503 2708.18991891 -1899.92066503C2708.18991891 -1899.92066503 2980.76597604 -1898.10724451 2980.76597604 -1898.10724451C2980.76597604 -1898.10724451 2981.07389548 -1983.15666629 2981.07389548 -1983.15666629C2981.07389548 -1983.15666629 2706.3905147 -1984.27768987 2706.3905147 -1984.27768987C2706.3905147 -1984.27768987 2706.3905147 -1984.27768987 2706.3905147 -1984.27768987">
    <title
       id="title22">#doe_vav_c-1-3</title>
    <desc
       id="desc24">Type=hvac</desc>
  </path>
  <path
     id="1st_floor__#doe_vav_c-1-4"
     class="area area_hvac"
     d="M2706.3905147 -1984.27768987C2706.3905147 -1984.27768987 2708.18991891 -1899.92066503 2708.18991891 -1899.92066503C2708.18991891 -1899.92066503 2980.76597604 -1898.10724451 2980.76597604 -1898.10724451C2980.76597604 -1898.10724451 2981.07389548 -1983.15666629 2981.07389548 -1983.15666629C2981.07389548 -1983.15666629 2706.3905147 -1984.27768987 2706.3905147 -1984.27768987C2706.3905147 -1984.27768987 2706.3905147 -1984.27768987 2706.3905147 -1984.27768987">
    <title
       id="title27">#doe_vav_c-1-4</title>
    <desc
       id="desc29">Type=hvac</desc>
  </path>
  <path
     id="1st_floor__#doe_vav_c-1-5"
     class="area area_hvac"
     d="M2706.3905147 -1984.27768987C2706.3905147 -1984.27768987 2708.18991891 -1899.92066503 2708.18991891 -1899.92066503C2708.18991891 -1899.92066503 2980.76597604 -1898.10724451 2980.76597604 -1898.10724451C2980.76597604 -1898.10724451 2981.07389548 -1983.15666629 2981.07389548 -1983.15666629C2981.07389548 -1983.15666629 2706.3905147 -1984.27768987 2706.3905147 -1984.27768987C2706.3905147 -1984.27768987 2706.3905147 -1984.27768987 2706.3905147 -1984.27768987">
    <title
       id="title32">#doe_vav_c-1-5</title>
    <desc
       id="desc34">Type=hvac</desc>
  </path>
  <path
     id="1st_floor__#doe_vav_c-1-6"
     class="area area_hvac"
     d="M2706.3905147 -1984.27768987C2706.3905147 -1984.27768987 2708.18991891 -1899.92066503 2708.18991891 -1899.92066503C2708.18991891 -1899.92066503 2980.76597604 -1898.10724451 2980.76597604 -1898.10724451C2980.76597604 -1898.10724451 2981.07389548 -1983.15666629 2981.07389548 -1983.15666629C2981.07389548 -1983.15666629 2706.3905147 -1984.27768987 2706.3905147 -1984.27768987C2706.3905147 -1984.27768987 2706.3905147 -1984.27768987 2706.3905147 -1984.27768987">
    <title
       id="title37">#doe_vav_c-1-6</title>
    <desc
       id="desc39">Type=hvac</desc>
  </path>
  <rect
     style="fill:#ff0000"
     id="rect3551"
     width="119.17869"
     height="116.90139"
     x="50.100594"
     y="20.226343"
     ry="1.5181998">
    <desc
       id="desc3555">Type=hvac</desc>
    <title
       id="title3553">#doe_vav_c-1-3</title>
  </rect>
  <rect
     style="fill:#ff0000"
     id="rect3567"
     width="402.32297"
     height="80.464592"
     x="172.31569"
     y="21.744543"
     ry="0.37954995">
    <desc
       id="desc3571">Type=hvac</desc>
    <title
       id="title3569">#doe_vav_c-1-1</title>
  </rect>
  <rect
     style="fill:#ff0000"
     id="rect3573"
     width="195.84778"
     height="85.77829"
     x="269.48047"
     y="103.72733"
     ry="0.37954995">
    <desc
       id="desc3577">Type=hvac</desc>
    <title
       id="title3575">#doe_vav_c-1-5</title>
  </rect>
  <rect
     style="fill:#ff0000"
     id="rect3579"
     width="61.487095"
     height="58.450695"
     x="163.96559"
     y="168.25082"
     ry="0.37954995">
    <desc
       id="desc3583">Type=hvac</desc>
    <title
       id="title3581">#doe_vav_c-1-6</title>
  </rect>
  <rect
     style="fill:#ff0000"
     id="rect3585"
     width="46.305096"
     height="75.909996"
     x="88.81469"
     y="168.25082"
     ry="0.37954995">
    <desc
       id="desc3589">Type=hvac</desc>
    <title
       id="title3587">#doe_vav_c-1-2</title>
  </rect>
  <rect
     style="fill:#ff0000"
     id="rect3591"
     width="58.450695"
     height="103.23759"
     x="19.736599"
     y="168.25082"
     ry="0.37954995">
    <desc
       id="desc3595">Type=hvac</desc>
    <title
       id="title3593">#doe_vav_c-1-2</title>
  </rect>
  <rect
     style="fill:#ff0000"
     id="rect3597"
     width="56.173393"
     height="120.69689"
     x="586.78424"
     y="105.24554"
     ry="0.37954995">
    <desc
       id="desc3601">Type=hvac</desc>
    <title
       id="title3599">#doe_vav_c-1-4</title>
  </rect>
</g>
</svg>
